SplineFontDB: 3.0
FontName: Klein-Regular
FullName: Klein Regular
FamilyName: Klein
Weight: Regular
Copyright: Copyright (c) 2016 by Matt Kline\nLicensed under the SIL Open Font License (OFL)\nDevelopment is ongoing at at https://github.com/mrkline/klein
UComments: "2016-1-15: Created with FontForge (http://fontforge.org)"
Version: 0.3
ItalicAngle: 0
UnderlinePosition: -20
UnderlineWidth: 50
Ascent: 800
Descent: 200
InvalidEm: 0
LayerCount: 2
Layer: 0 0 "Back" 1
Layer: 1 0 "Fore" 0
XUID: [1021 77 -1879282181 14856649]
FSType: 0
OS2Version: 0
OS2_WeightWidthSlopeOnly: 0
OS2_UseTypoMetrics: 1
CreationTime: 1452917949
ModificationTime: 1464932572
PfmFamily: 17
TTFWeight: 500
TTFWidth: 5
LineGap: 100
VLineGap: 0
OS2TypoAscent: 0
OS2TypoAOffset: 1
OS2TypoDescent: 0
OS2TypoDOffset: 1
OS2TypoLinegap: 400
OS2WinAscent: 0
OS2WinAOffset: 1
OS2WinDescent: 0
OS2WinDOffset: 1
HheadAscent: 0
HheadAOffset: 1
HheadDescent: 0
HheadDOffset: 1
OS2CapHeight: 650
OS2XHeight: 450
OS2Vendor: 'PfEd'
Lookup: 4 0 1 "'liga' standard ligatures" { "'liga' standard ligatures-subtable"  } ['liga' ('DFLT' <'dflt' > 'latn' <'dflt' > ) ]
Lookup: 4 0 0 "'dlig' discretionary/historic ligatures" { "'dlig' discretionary/historic ligatures-subtable"  } ['dlig' ('DFLT' <'dflt' > 'latn' <'dflt' > ) ]
Lookup: 260 0 0 "mark to base" { "upper diacritics"  } ['mark' ('DFLT' <'dflt' > 'latn' <'dflt' > ) ]
Lookup: 258 0 0 "'kern' Horizontal Kerning" { "by class" [150,0,2] "per glyph" [100,15,2] } ['kern' ('DFLT' <'dflt' > 'latn' <'dflt' > ) ]
MarkAttachClasses: 1
DEI: 91125
KernClass2: 20 17 "by class"
 1 A
 1 F
 1 J
 1 P
 1 T
 11 V W Y seven
 3 R X
 6 O zero
 4 nine
 1 a
 7 b e o p
 17 c g h m n q s u z
 3 k x
 5 v w y
 5 f f_f
 1 r
 43 quotesingle quoteleft quotedbl quotedblleft
 24 quoteright quotedblright
 37 comma period ellipsis colon semicolon
 1 A
 5 V W Y
 5 T T_h
 1 J
 15 a g m n p r s z
 9 c d e o q
 25 f f_f f_i f_f_i f_l f_f_l
 1 t
 1 i
 1 j
 1 u
 5 v w y
 1 x

StartChar: l
Encoding: 108 108 0
Width: 250
VWidth: 838
Flags: HMW
LayerCount: 2
Fore
SplineSet
170 40 m 5
 230 30 l 5
 230 0 l 1
 30 0 l 1
 30 30 l 5
 90 40 l 5
 90 620 l 1
 30 640 l 1
 30 660 l 1
 110 675 130 685 160 700 c 1
 170 700 l 1
 170 40 l 5
EndSplineSet
Validated: 1
EndChar

StartChar: o
Encoding: 111 111 1
Width: 500
VWidth: 838
Flags: HMW
AnchorPoint: "upper" 250 510 basechar 0
LayerCount: 2
Back
SplineSet
251 458 m 0
 283 458 312 452 339 440 c 0
 366 428 388 412 408 392 c 0
 428 372 443 347 454 319 c 0
 465 291 471 260 471 227 c 0
 471 194 465 163 454 135 c 0
 443 107 428 83 408 62 c 0
 388 41 366 25 339 14 c 0
 312 3 283 -3 251 -3 c 0
 219 -3 190 3 163 14 c 0
 136 25 113 41 93 62 c 0
 73 83 58 107 47 135 c 0
 36 163 30 194 30 227 c 0
 30 260 36 291 47 319 c 0
 58 347 73 372 93 392 c 0
 113 412 136 428 163 440 c 0
 190 452 219 458 251 458 c 0
119 227 m 0
 119 166 131 119 154 85 c 0
 177 51 209 34 250 34 c 0
 291 34 324 51 347 85 c 0
 370 119 382 167 382 228 c 0
 382 288 370 335 347 369 c 0
 324 403 292 420 251 420 c 0
 210 420 177 403 154 369 c 0
 131 335 119 288 119 227 c 0
EndSplineSet
Fore
SplineSet
470 225 m 7
 470 100 375 -10 250 -10 c 7
 125 -10 30 100 30 225 c 7
 30 350 125 460 250 460 c 7
 375 460 470 350 470 225 c 7
250 410 m 7
 155 410 120 329 120 225 c 7
 120 122 155 35 250 35 c 7
 345 35 380 121 380 225 c 7
 380 328 345 410 250 410 c 7
EndSplineSet
Validated: 1
EndChar

StartChar: x
Encoding: 120 120 2
Width: 459
VWidth: 838
Flags: HMW
LayerCount: 2
Fore
SplineSet
269 420 m 1
 269 450 l 1
 419 450 l 1
 419 420 l 1
 389 420 370 400 349 370 c 2
 261 249 l 1
 369 80 l 2
 388 50 409 30 439 30 c 1
 439 0 l 1
 259 0 l 1
 259 30 l 1
 281 30 297 41 297 58 c 3
 297 65 294 72 289 80 c 2
 219 190 l 1
 140 80 l 2
 134 72 132 64 132 57 c 3
 132 40 148 30 170 30 c 1
 170 0 l 1
 20 0 l 1
 20 30 l 1
 50 30 69 50 90 80 c 2
 196 227 l 1
 104 370 l 2
 85 400 64 420 34 420 c 1
 34 450 l 1
 214 450 l 1
 214 420 l 1
 192 420 176 409 176 392 c 3
 176 385 179 378 184 370 c 2
 238 286 l 1
 299 370 l 2
 305 378 307 385 307 392 c 3
 307 409 291 420 269 420 c 1
EndSplineSet
Validated: 1
EndChar

StartChar: y
Encoding: 121 121 3
Width: 450
VWidth: 838
Flags: HMW
AnchorPoint: "upper" 245 500 basechar 0
LayerCount: 2
Fore
SplineSet
33 -154 m 3
 33 -127 51 -110 79 -110 c 3
 123 -110 110 -156 127 -156 c 3
 136 -156 155 -146 166 -113 c 2
 220 48 l 1
 90 370 l 2
 78 400 60 420 30 420 c 1
 30 450 l 1
 200 450 l 1
 200 420 l 1
 176 420 167 406 167 385 c 3
 167 380 168 375 170 370 c 2
 257 155 l 1
 330 370 l 2
 332 375 333 380 333 385 c 3
 333 406 315 420 290 420 c 1
 290 450 l 1
 440 450 l 1
 440 420 l 1
 410 420 390 400 380 370 c 2
 216 -113 l 2
 186 -200 144 -210 101 -210 c 3
 64 -210 33 -190 33 -154 c 3
EndSplineSet
Validated: 1
EndChar

StartChar: z
Encoding: 122 122 4
Width: 393
VWidth: 838
Flags: HMW
LayerCount: 2
Fore
SplineSet
373 450 m 1
 373 425 l 1
 108 35 l 1
 303 35 l 1
 338 135 l 1
 362 135 l 1
 352 0 l 1
 20 0 l 1
 20 25 l 1
 282 410 l 1
 92 410 l 1
 57 310 l 1
 37 310 l 1
 47 450 l 1
 373 450 l 1
EndSplineSet
Validated: 1
EndChar

StartChar: i
Encoding: 105 105 5
Width: 250
VWidth: 838
Flags: HMW
LayerCount: 2
Fore
SplineSet
160 460 m 1
 170 460 l 1
 170 40 l 5
 230 30 l 5
 230 0 l 1
 30 0 l 1
 30 30 l 5
 90 40 l 5
 90 380 l 1
 30 400 l 1
 30 420 l 1
 110 435 130 445 160 460 c 1
130 549 m 3
 100 549 75 575 75 604 c 3
 75 636 98 659 130 659 c 3
 163 659 185 637 185 604 c 3
 185 573 162 549 130 549 c 3
EndSplineSet
Validated: 1
EndChar

StartChar: t
Encoding: 116 116 6
Width: 313
VWidth: 838
Flags: HMW
LayerCount: 2
Back
SplineSet
626 64 m 1
 596 25 557 5 507 5 c 0
 453 5 387 25 387 110 c 2
 387 392 l 1
 317 392 l 1
 317 420 l 1
 399 423 437 468 436 571 c 1
 467 571 l 1
 467 420 l 1
 587 420 l 1
 587 392 l 1
 467 392 l 1
 467 311 467 230 467 149 c 0
 467 73 488 38 530 38 c 0
 555 38 574 50 603 83 c 1
 626 64 l 1
289 60 m 1
 267 26 226 -3 174 -3 c 0
 131 -3 98 20 88 56 c 0
 84 70 81 90 81 116 c 2
 81 420 l 1
 28 420 l 1
 26 433 l 1
 146 559 l 1
 161 557 l 1
 161 449 l 1
 281 449 l 1
 275 420 l 1
 161 420 l 1
 161 123 l 2
 161 91 161 72 169 60 c 0
 179.182617188 44.7255859375 192 36 211 36 c 0
 238 36 262 53 275 70 c 1
 289 60 l 1
EndSplineSet
Fore
SplineSet
298 50 m 1
 276 17 235 -10 183 -10 c 0
 140 -10 108 15 97 51 c 0
 93 65 90 85 90 111 c 2
 90 410 l 1
 25 410 l 1
 25 450 l 1
 89 450 140 536 150 610 c 1
 170 610 l 1
 170 450 l 1
 290 450 l 1
 290 410 l 1
 170 410 l 1
 170 118 l 2
 170 95 171 67 178 55 c 0
 187 39 199 30 219 30 c 0
 246 30 270 48 283 65 c 1
 298 50 l 1
EndSplineSet
Validated: 1
EndChar

StartChar: s
Encoding: 115 115 7
Width: 366
Flags: HMW
LayerCount: 2
Fore
SplineSet
45 335 m 0
 45 423 111 460 204 460 c 3
 239 460 283 456 306 446 c 1
 306 331 l 1
 286 331 l 1
 267 403 245 410 197 410 c 3
 153 410 125 384 125 345 c 0
 125 271 233 261 271 235 c 0
 302 214 326 181 326 128 c 3
 326 37 262 -10 168 -10 c 3
 129 -10 80 -3 50 8 c 1
 50 143 l 1
 70 143 l 1
 88 55 120 35 175 35 c 3
 213 35 246 69 246 113 c 3
 246 187 148 199 101 231 c 0
 70 253 45 282 45 335 c 0
EndSplineSet
Validated: 1
EndChar

StartChar: h
Encoding: 104 104 8
Width: 522
VWidth: 838
Flags: HMW
LayerCount: 2
Fore
SplineSet
165 410 m 1
 207 447 244 460 313 460 c 3
 364 460 426 433 437 393 c 0
 442 374 442 354 442 331 c 2
 442 331 442 139 442 40 c 5
 502 30 l 5
 502 0 l 1
 302 0 l 1
 302 30 l 5
 362 40 l 5
 362 280 l 2
 362 354 357 410 286 410 c 3
 239 410 198 396 165 360 c 1
 165 40 l 5
 225 30 l 5
 225 0 l 1
 25 0 l 1
 25 30 l 5
 85 40 l 5
 85 620 l 1
 25 640 l 1
 25 660 l 1
 105 675 125 685 155 700 c 1
 165 700 l 1
 165 410 l 1
EndSplineSet
Validated: 1
EndChar

StartChar: b
Encoding: 98 98 9
Width: 497
VWidth: 838
Flags: HMW
LayerCount: 2
Back
SplineSet
145 400 m 1
 145 400 194 460 255 460 c 3
 375 460 462 355 462 233 c 3
 462 92 365 -10 225 -10 c 3
 184 -10 145 10 145 10 c 1
 145 -180 l 1
 205 -190 l 1
 205 -210 l 1
 5 -210 l 1
 5 -190 l 1
 65 -180 l 1
 65 380 l 1
 -5 400 l 1
 -5 420 l 1
 75 435 105 445 135 460 c 1
 145 460 l 1
 145 400 l 1
145 75 m 2
 145 55 183 35 230 35 c 3
 318 35 372 127 372 218 c 3
 372 317 331 410 239 410 c 3
 184 410 145 350 145 330 c 2
 145 75 l 2
EndSplineSet
Fore
SplineSet
145 75 m 2
 145 55 183 35 230 35 c 3
 318 35 372 127 372 218 c 3
 372 317 331 410 239 410 c 3
 184 410 145 350 145 330 c 2
 145 75 l 2
120 30 m 1
 85 0 l 1
 65 0 l 1
 65 620 l 1
 5 640 l 1
 5 660 l 1
 85 675 105 685 135 700 c 1
 145 700 l 1
 145 400 l 1
 145 400 194 460 255 460 c 3
 375 460 462 355 462 233 c 3
 462 92 365 -10 225 -10 c 3
 159 -10 120 30 120 30 c 1
EndSplineSet
Validated: 1
EndChar

StartChar: v
Encoding: 118 118 10
Width: 437
VWidth: 838
Flags: HMW
LayerCount: 2
Fore
SplineSet
277 420 m 1
 277 450 l 1
 427 450 l 1
 427 420 l 1
 397 420 378 400 367 370 c 2
 231 -10 l 1
 210 -10 l 1
 70 370 l 2
 59 400 40 420 10 420 c 1
 10 450 l 1
 190 450 l 1
 190 420 l 1
 165 420 147 407 147 386 c 3
 147 381 148 377 150 370 c 2
 234 142 l 1
 317 370 l 2
 319 375 320 380 320 385 c 3
 320 406 302 420 277 420 c 1
EndSplineSet
Validated: 1
EndChar

StartChar: u
Encoding: 117 117 11
Width: 495
VWidth: 838
Flags: HMW
AnchorPoint: "upper" 230 500 basechar 0
LayerCount: 2
Fore
SplineSet
335 35 m 5
 296 0 256 -10 188 -10 c 4
 98 -10 80 50 80 142 c 6
 80 410 l 5
 20 430 l 5
 20 450 l 5
 160 450 l 5
 160 162 l 6
 160 91 162 35 230 35 c 4
 278 35 310 55 335 85 c 5
 335 410 l 5
 275 430 l 5
 275 450 l 5
 415 450 l 5
 415 50 l 5
 475 30 l 5
 475 20 l 5
 355 -10 l 5
 345 -10 l 5
 345 30 l 5
 335 35 l 5
EndSplineSet
Validated: 1
EndChar

StartChar: c
Encoding: 99 99 12
Width: 448
VWidth: 838
Flags: HMW
AnchorPoint: "upper" 250 510 basechar 0
LayerCount: 2
Back
SplineSet
470 225 m 3
 470 100 375 -10 250 -10 c 3
 125 -10 30 100 30 225 c 3
 30 350 125 460 250 460 c 3
 375 460 470 350 470 225 c 3
250 410 m 3
 155 410 120 329 120 225 c 3
 120 122 155 35 250 35 c 3
 345 35 380 121 380 225 c 3
 380 328 345 410 250 410 c 3
EndSplineSet
Fore
SplineSet
409 369 m 3
 409 344 393 328 368 328 c 3
 308 328 345 410 250 410 c 3
 155 410 120 329 120 225 c 3
 120 127 155 40 250 40 c 3
 345 40 393 126 393 126 c 1
 418 111 l 1
 418 111 375 -10 250 -10 c 3
 105 -10 30 100 30 225 c 3
 30 350 125 460 250 460 c 3
 320 460 409 416 409 369 c 3
EndSplineSet
Validated: 1
EndChar

StartChar: e
Encoding: 101 101 13
Width: 459
VWidth: 838
Flags: HMW
AnchorPoint: "upper" 240 510 basechar 0
LayerCount: 2
Back
SplineSet
409 369 m 3
 409 344 393 328 368 328 c 3
 308 328 345 410 250 410 c 3
 155 410 120 329 120 225 c 3
 120 127 155 40 250 40 c 3
 345 40 393 126 393 126 c 1
 418 111 l 1
 418 111 375 -10 250 -10 c 3
 105 -10 30 100 30 225 c 3
 30 350 125 460 250 460 c 3
 320 460 409 416 409 369 c 3
EndSplineSet
Fore
SplineSet
120 235 m 1
 120 130 152 40 250 40 c 3
 345 40 393 126 393 126 c 1
 418 111 l 1
 418 111 375 -10 250 -10 c 3
 105 -10 30 100 30 225 c 3
 30 350 125 460 250 460 c 3
 375 460 424 350 424 280 c 3
 424 255 405 235 375 235 c 2
 120 235 l 1
124 280 m 1
 326 280 l 2
 336 280 344 290 344 300 c 3
 344 310 344 410 249 410 c 3
 129 410 124 280 124 280 c 1
EndSplineSet
Validated: 1
EndChar

StartChar: d
Encoding: 100 100 14
Width: 507
VWidth: 838
Flags: HMW
LayerCount: 2
Fore
SplineSet
357 -10 m 1
 357 30 l 1
 347 35 l 1
 328 15 273 -10 210 -10 c 3
 154 -10 113 21 86 55 c 0
 56 92 35 154 35 220 c 3
 35 332 89 406 167 440 c 0
 194 451 224 460 257 460 c 3
 288 460 318 453 347 445 c 1
 347 620 l 1
 287 640 l 1
 287 660 l 1
 367 675 387 685 417 700 c 1
 427 700 l 1
 427 60 l 1
 487 40 l 1
 487 20 l 1
 367 -10 l 1
 357 -10 l 1
125 233 m 3
 125 138 158 35 245 35 c 0
 290 35 329 66 347 95 c 1
 347 337 l 2
 347 384 311 410 255 410 c 3
 151 410 125 336 125 233 c 3
EndSplineSet
Validated: 1
EndChar

StartChar: f
Encoding: 102 102 15
Width: 407
VWidth: 838
Flags: HMW
LayerCount: 2
Fore
SplineSet
382 629 m 3
 382 604 366 588 341 588 c 3
 281 588 321 660 259 660 c 3
 180 660 180 580 180 495 c 2
 180 450 l 1
 300 450 l 1
 300 410 l 1
 180 410 l 1
 180 40 l 1
 240 30 l 1
 240 0 l 1
 40 0 l 1
 40 30 l 1
 100 40 l 1
 100 410 l 1
 20 410 l 1
 35 450 l 1
 100 450 l 1
 100 543 l 2
 100 609 133 646 176 673 c 0
 202 689 236 700 275 700 c 3
 327 700 382 676 382 629 c 3
EndSplineSet
Validated: 1
EndChar

StartChar: g
Encoding: 103 103 16
Width: 472
VWidth: 838
Flags: HMW
LayerCount: 2
Back
SplineSet
49 296 m 3
 49 386 128 460 218 460 c 3
 308 460 387 386 387 296 c 3
 387 206 308 132 218 132 c 3
 128 132 49 206 49 296 c 3
218 296 m 1048
316 428 m 1
 336 462 370 492 403 492 c 0
 428 492 452 473 452 451 c 0
 452 428 433 408 416 408 c 0
 388 408 363 429 342 405 c 1
 316 428 l 1
349 509 m 1
 279 576 l 1
 287 581 l 1
 323 583 346 586 422 611 c 1
 427 602 l 1
 349 509 l 1
EndSplineSet
Fore
SplineSet
218 410 m 3
 148 410 129 356 129 296 c 3
 129 236 148 180 218 180 c 3
 288 180 306 236 306 296 c 3
 306 356 288 410 218 410 c 3
90 -70 m 3
 90 -124 136 -160 220 -160 c 3
 303 -160 353 -124 353 -70 c 3
 353 -16 304 0 220 0 c 2
 154 0 l 2
 114 0 90 -39 90 -70 c 3
375 356 m 1
 375 356 387 331 387 296 c 3
 387 206 308 132 218 132 c 3
 181 132 153 145 153 145 c 1
 123 115 121 102 121 87 c 3
 121 62 182 42 233 42 c 3
 382 42 423 21 423 -52 c 3
 423 -132 363 -210 222 -210 c 3
 109 -210 20 -157 20 -84 c 3
 20 -34 45 7 98 30 c 1
 63 46 51 67 51 87 c 3
 51 117 75 145 105 175 c 1
 105 175 49 220 49 296 c 3
 49 386 128 460 218 460 c 3
 278 460 316 428 316 428 c 1
 349 428 370 436 442 460 c 1
 452 450 l 1
 375 356 l 1
EndSplineSet
Validated: 1
EndChar

StartChar: j
Encoding: 106 106 17
Width: 260
VWidth: 838
Flags: HMW
LayerCount: 2
Fore
SplineSet
145 549 m 3
 115 549 90 575 90 604 c 3
 90 636 113 659 145 659 c 3
 178 659 200 637 200 604 c 3
 200 573 177 549 145 549 c 3
185 0 m 2
 185 -40 166 -165 -7 -165 c 0
 -58 -165 -100 -144 -100 -97 c 0
 -100 -67 -83 -47 -54 -47 c 0
 2 -47 -27 -116 34 -116 c 3
 91 -116 105 -59 105 0 c 2
 105 380 l 1
 45 400 l 1
 45 420 l 1
 125 435 145 445 175 460 c 1
 185 460 l 1
 185 0 l 2
EndSplineSet
Validated: 1
EndChar

StartChar: a
Encoding: 97 97 18
Width: 465
VWidth: 838
Flags: HMW
AnchorPoint: "upper" 202 500 basechar 0
LayerCount: 2
Back
SplineSet
115 102 m 3
 115 59 155 35 197 35 c 3
 239 35 290 90 290 115 c 2
 290 207 l 1
 231 196 115 160 115 102 c 3
290 333 m 2
 290 397 247 410 204 410 c 3
 55 410 168 280 74 280 c 3
 51 280 35 301 35 325 c 3
 35 391 87 460 213 460 c 3
 321 460 370 414 370 303 c 10
 370 106 l 2
 370 65 370 35 401 35 c 3
 422 35 432 46 443 60 c 1
 455 48 l 1
 434 15 414 -10 369 -10 c 3
 332 -10 305 5 297 30 c 1
 287 35 l 1
 258 3 209 -10 160 -10 c 3
 100 -10 35 44 35 104 c 3
 35 206 200 236 290 257 c 1
 290 333 l 2
EndSplineSet
Fore
SplineSet
115 115 m 3
 115 45 155 35 197 35 c 3
 239 35 290 90 290 115 c 2
 290 230 l 1
 231 219 115 183 115 115 c 3
290 333 m 2
 290 397 247 410 204 410 c 3
 55 410 168 280 74 280 c 3
 51 280 35 301 35 325 c 3
 35 391 87 460 213 460 c 3
 321 460 370 414 370 303 c 10
 370 106 l 2
 370 65 370 35 401 35 c 3
 422 35 432 46 443 60 c 1
 455 48 l 1
 434 15 414 -10 369 -10 c 3
 332 -10 305 5 297 30 c 1
 287 35 l 1
 258 3 209 -10 160 -10 c 3
 100 -10 35 47 35 107 c 3
 35 227 200 259 290 280 c 1
 290 333 l 2
EndSplineSet
Validated: 1
EndChar

StartChar: A
Encoding: 65 65 19
Width: 635
VWidth: 838
Flags: HMW
AnchorPoint: "upper" 315 700 basechar 0
LayerCount: 2
Fore
SplineSet
411 200 m 1
 203 200 l 1
 160 80 l 2
 158 76 158 72 158 68 c 3
 158 44 189 30 220 30 c 1
 220 0 l 1
 10 0 l 1
 10 30 l 1
 50 30 79 50 90 80 c 2
 297 650 l 1
 333 660 l 1
 545 80 l 2
 556 50 585 30 625 30 c 1
 625 0 l 1
 395 0 l 1
 395 30 l 1
 425 30 457 45 457 69 c 3
 457 73 456 76 455 80 c 2
 411 200 l 1
220 245 m 1
 395 245 l 1
 307 485 l 1
 220 245 l 1
EndSplineSet
Validated: 1
EndChar

StartChar: B
Encoding: 66 66 20
Width: 572
VWidth: 838
Flags: HMW
LayerCount: 2
Fore
SplineSet
501 494 m 3
 501 409 443 361 367 345 c 1
 367 342 l 1
 442 334 500 295 525 235 c 0
 532 215 537 194 537 171 c 3
 537 81 480 28 407 10 c 0
 379 4 344 0 297 0 c 2
 25 0 l 1
 25 30 l 1
 100 45 l 1
 100 605 l 5
 25 620 l 5
 25 650 l 1
 282 650 l 2
 386 650 450 630 485 563 c 0
 496 542 501 519 501 494 c 3
195 375 m 1
 246 375 l 2
 355 375 411 383 411 496 c 3
 411 578 350 600 266 600 c 2
 195 600 l 1
 195 375 l 1
437 179 m 3
 437 288 377 315 265 315 c 2
 195 315 l 1
 195 111 l 2
 195 67 218 60 268 60 c 3
 379 60 437 71 437 179 c 3
EndSplineSet
Validated: 1
EndChar

StartChar: C
Encoding: 67 67 21
Width: 631
VWidth: 838
Flags: HMW
LayerCount: 2
Back
SplineSet
340 660 m 7
 530 660 645 520 645 330 c 3
 645 140 530 -10 340 -10 c 7
 150 -10 35 140 35 330 c 7
 35 520 150 660 340 660 c 7
140 330 m 7
 140 180 190 45 340 45 c 7
 490 45 540 180 540 330 c 3
 540 480 490 600 340 600 c 7
 190 600 140 480 140 330 c 7
EndSplineSet
Fore
SplineSet
340 -10 m 3
 150 -10 35 140 35 330 c 3
 35 520 150 660 340 660 c 3
 455 660 521 605 521 605 c 1
 566 650 l 1
 586 650 l 1
 586 458 l 1
 556 458 l 1
 556 458 490 600 340 600 c 3
 190 600 140 480 140 330 c 3
 140 180 190 45 340 45 c 3
 490 45 551 154 551 154 c 1
 586 134 l 5
 586 134 530 -10 340 -10 c 3
EndSplineSet
Validated: 1
EndChar

StartChar: D
Encoding: 68 68 22
Width: 655
VWidth: 838
Flags: HMW
AnchorPoint: "upper" 340 700 basechar 0
LayerCount: 2
Fore
SplineSet
25 0 m 1
 25 30 l 1
 100 45 l 1
 100 605 l 1
 25 620 l 1
 25 650 l 1
 238 650 l 2
 476 650 620 520 620 330 c 3
 620 140 510 0 310 0 c 2
 25 0 l 1
190 109 m 2
 190 62 222 58 276 58 c 3
 451 58 515 180 515 330 c 3
 515 480 439 601 255 601 c 2
 190 601 l 1
 190 109 l 2
EndSplineSet
Validated: 1
EndChar

StartChar: E
Encoding: 69 69 23
Width: 553
VWidth: 838
Flags: HMW
AnchorPoint: "upper" 280 700 basechar 0
LayerCount: 2
Fore
SplineSet
491 466 m 1
 477 518 456 556 430 600 c 1
 190 600 l 1
 190 375 l 1
 339 375 l 1
 353 406 364 421 370 458 c 1
 390 458 l 1
 390 223 l 1
 370 223 l 1
 365 257 355 282 339 315 c 1
 190 315 l 1
 190 59 l 1
 425 59 l 1
 457 111 474 141 495 201 c 1
 523 201 l 1
 492 0 l 1
 25 0 l 1
 25 30 l 1
 100 45 l 1
 100 605 l 5
 25 620 l 5
 25 650 l 1
 496 650 l 1
 511 466 l 1
 491 466 l 1
EndSplineSet
Validated: 1
EndChar

StartChar: H
Encoding: 72 72 24
Width: 694
VWidth: 838
Flags: HMW
LayerCount: 2
Fore
SplineSet
504 320 m 1
 190 320 l 1
 190 45 l 1
 265 30 l 1
 265 0 l 1
 25 0 l 1
 25 30 l 1
 100 45 l 1
 100 605 l 1
 25 620 l 1
 25 650 l 1
 265 650 l 1
 265 620 l 1
 190 605 l 1
 190 380 l 1
 504 380 l 1
 504 605 l 1
 429 620 l 1
 429 650 l 1
 669 650 l 1
 669 620 l 1
 594 605 l 1
 594 45 l 1
 669 30 l 1
 669 0 l 1
 429 0 l 1
 429 30 l 1
 504 45 l 1
 504 320 l 1
EndSplineSet
Validated: 1
EndChar

StartChar: I
Encoding: 73 73 25
Width: 289
VWidth: 838
Flags: HMW
AnchorPoint: "upper" 140 700 basechar 0
LayerCount: 2
Fore
SplineSet
100 605 m 1
 25 620 l 1
 25 650 l 1
 264 650 l 1
 264 620 l 1
 189 605 l 1
 189 45 l 5
 264 30 l 5
 264 0 l 1
 25 0 l 1
 25 30 l 5
 100 45 l 5
 100 605 l 1
EndSplineSet
Validated: 1
EndChar

StartChar: J
Encoding: 74 74 26
Width: 418
VWidth: 838
Flags: HMW
LayerCount: 2
Fore
SplineSet
228 605 m 1
 153 620 l 1
 153 650 l 1
 393 650 l 1
 393 620 l 1
 318 605 l 1
 318 213 l 2
 318 131 273 0 120 0 c 3
 49 0 15 29 15 76 c 3
 15 106 36 127 65 127 c 0
 121 127 99 55 160 55 c 3
 217 55 228 121 228 213 c 2
 228 605 l 1
EndSplineSet
Validated: 1
EndChar

StartChar: O
Encoding: 79 79 27
Width: 680
VWidth: 838
Flags: HMW
AnchorPoint: "upper" 340 700 basechar 0
LayerCount: 2
Fore
SplineSet
340 660 m 3
 530 660 645 520 645 330 c 3
 645 140 530 -10 340 -10 c 3
 150 -10 35 140 35 330 c 3
 35 520 150 660 340 660 c 3
140 330 m 3
 140 180 190 45 340 45 c 3
 490 45 540 180 540 330 c 7
 540 480 490 600 340 600 c 3
 190 600 140 480 140 330 c 3
EndSplineSet
Validated: 1
EndChar

StartChar: r
Encoding: 114 114 28
Width: 355
VWidth: 838
Flags: HMW
LayerCount: 2
Back
SplineSet
329 406 m 0
 329 379 307 358 280 358 c 0
 267 358 256 363 248 374 c 0
 240 383 236 390 222 390 c 0
 210 390 199 383 189 369 c 0
 179 356 173 347 170 343 c 0
 167 339 165 334 164 329 c 1
 164 34 l 1
 248 22 l 1
 248 5 l 1
 21 5 l 1
 21 22 l 1
 85 34 l 1
 85 383 l 1
 23 407 l 1
 23 417 l 1
 153 459 l 1
 161 459 l 1
 161 366 l 1
 181 396 200 419 220 435 c 0
 240 451 258 459 276 459 c 0
 305 459 329 435 329 406 c 0
EndSplineSet
Fore
SplineSet
85 380 m 1
 25 400 l 1
 25 420 l 1
 105 435 125 445 155 460 c 1
 165 460 l 1
 165 400 l 1
 165 400 214 460 275 460 c 3
 304 460 330 439 330 410 c 3
 330 383 308 360 280 360 c 3
 252 360 246 390 220 390 c 3
 195 390 165 350 165 330 c 2
 165 40 l 5
 225 30 l 5
 225 0 l 1
 25 0 l 1
 25 30 l 5
 85 40 l 5
 85 380 l 1
EndSplineSet
Validated: 1
EndChar

StartChar: k
Encoding: 107 107 29
Width: 482
VWidth: 838
Flags: HMW
LayerCount: 2
Fore
SplineSet
160 235 m 1
 278 370 l 2
 286 379 289 386 289 393 c 3
 289 410 269 420 248 420 c 1
 248 450 l 1
 428 450 l 1
 428 420 l 1
 398 420 374 400 348 370 c 2
 241 248 l 1
 407 40 l 1
 467 30 l 1
 467 0 l 1
 349 0 l 1
 198 200 l 1
 160 156 l 1
 160 40 l 1
 220 30 l 1
 220 0 l 1
 20 0 l 1
 20 30 l 1
 80 40 l 1
 80 620 l 1
 20 640 l 1
 20 660 l 1
 100 675 120 685 150 700 c 1
 160 700 l 1
 160 235 l 1
EndSplineSet
Validated: 1
EndChar

StartChar: w
Encoding: 119 119 30
Width: 668
VWidth: 838
Flags: HMW
LayerCount: 2
Fore
SplineSet
508 420 m 1
 508 450 l 1
 658 450 l 1
 658 420 l 1
 628 419 609 402 598 370 c 2
 464 -10 l 1
 437 -10 l 1
 336 310 l 1
 226 -10 l 1
 199 -10 l 1
 70 370 l 2
 60 400 40 420 10 420 c 1
 10 450 l 1
 190 450 l 1
 190 420 l 1
 165 420 148 406 148 384 c 3
 148 380 149 375 150 370 c 2
 228 142 l 1
 310 380 l 18
 312 385 313 390 313 395 c 3
 313 406 295 420 270 420 c 1
 270 450 l 1
 435 450 l 1
 435 420 l 1
 410 420 393 406 393 394 c 3
 393 390 393 385 395 380 c 2
 469 142 l 1
 548 370 l 2
 550 376 551 380 551 385 c 3
 551 406 533 420 508 420 c 1
EndSplineSet
Validated: 1
EndChar

StartChar: F
Encoding: 70 70 31
Width: 535
VWidth: 838
Flags: HMW
LayerCount: 2
Back
SplineSet
490 466 m 5
 476 518 455 557 429 601 c 5
 190 601 l 5
 190 375 l 5
 339 375 l 5
 353 406 364 421 370 458 c 5
 390 458 l 5
 390 223 l 5
 370 223 l 5
 365 257 355 282 339 315 c 5
 190 315 l 5
 190 59 l 5
 425 59 l 5
 457 111 474 141 495 201 c 5
 523 201 l 5
 492 0 l 5
 25 0 l 5
 25 20 l 5
 100 35 l 5
 100 615 l 5
 25 630 l 5
 25 650 l 5
 495 650 l 5
 510 466 l 5
 490 466 l 5
EndSplineSet
Fore
SplineSet
490 466 m 1
 476 518 455 557 429 601 c 1
 190 601 l 1
 190 375 l 1
 339 375 l 1
 353 406 364 421 370 458 c 1
 390 458 l 1
 390 223 l 1
 370 223 l 1
 365 257 355 282 339 315 c 1
 190 315 l 1
 190 45 l 5
 265 30 l 5
 265 0 l 1
 25 0 l 1
 25 30 l 5
 100 45 l 5
 100 605 l 1
 25 620 l 1
 25 650 l 1
 495 650 l 1
 510 466 l 1
 490 466 l 1
EndSplineSet
Validated: 1
EndChar

StartChar: G
Encoding: 71 71 32
Width: 668
VWidth: 838
Flags: HMW
LayerCount: 2
Back
SplineSet
36 324 m 7
 36 518 151 659 343 659 c 7
 415 659 477 637 523 608 c 5
 527 608 l 5
 568 651 l 5
 583 651 l 5
 583 458 l 5
 558 458 l 5
 527 551 475 609 357 609 c 7
 201 609 142 495 142 329 c 7
 142 163 202 50 357 50 c 7
 480 50 540 119 560 225 c 5
 583 225 l 5
 583 5 l 5
 563 5 l 5
 524 60 l 5
 471 21 422 -3 340 -3 c 7
 150 -3 36 133 36 324 c 7
EndSplineSet
Fore
SplineSet
364 611 m 0
 202 611 143 490 143 315 c 0
 143 125 215 45 356 45 c 0
 427 45 482 70 482 142 c 2
 482 288 l 1
 407 303 l 1
 407 323 l 1
 643 323 l 1
 643 303 l 1
 568 288 l 1
 568 68 l 1
 520 22 432 -10 340 -10 c 4
 244 -10 170 30 121 82 c 0
 70 136 35 215 35 315 c 0
 35 508 158 659 350 659 c 0
 417 659 475 640 511 608 c 1
 514 608 l 1
 559 650 l 1
 578 650 l 1
 578 458 l 1
 558 458 l 1
 521 544 483 611 364 611 c 0
EndSplineSet
Validated: 1
EndChar

StartChar: L
Encoding: 76 76 33
Width: 544
VWidth: 838
Flags: HMW
LayerCount: 2
Fore
SplineSet
190 605 m 1
 190 59 l 1
 432 59 l 1
 464 112 481 141 502 201 c 1
 524 201 l 1
 493 0 l 1
 25 0 l 1
 25 30 l 1
 100 45 l 1
 100 605 l 1
 25 620 l 1
 25 650 l 1
 265 650 l 1
 265 620 l 1
 190 605 l 1
EndSplineSet
Validated: 1
EndChar

StartChar: p
Encoding: 112 112 34
Width: 517
VWidth: 838
Flags: HMW
LayerCount: 2
Back
SplineSet
85 380 m 1
 25 400 l 1
 25 420 l 1
 105 435 125 445 155 460 c 1
 165 460 l 1
 165 400 l 1
 165 400 214 460 275 460 c 3
 304 460 330 439 330 410 c 3
 330 383 308 360 280 360 c 3
 252 360 246 390 220 390 c 3
 195 390 165 350 165 330 c 2
 165 30 l 1
 225 20 l 1
 225 0 l 1
 25 0 l 1
 25 20 l 1
 85 30 l 1
 85 380 l 1
EndSplineSet
Fore
SplineSet
165 400 m 1
 165 400 214 460 275 460 c 3
 395 460 482 355 482 233 c 3
 482 92 385 -10 245 -10 c 3
 204 -10 165 10 165 10 c 1
 165 -170 l 5
 225 -180 l 5
 225 -210 l 1
 25 -210 l 1
 25 -180 l 5
 85 -170 l 5
 85 380 l 1
 15 400 l 1
 15 420 l 1
 95 435 125 445 155 460 c 1
 165 460 l 1
 165 400 l 1
165 75 m 2
 165 55 203 35 250 35 c 3
 338 35 392 127 392 218 c 3
 392 317 351 410 259 410 c 3
 204 410 165 350 165 330 c 2
 165 75 l 2
EndSplineSet
Validated: 1
EndChar

StartChar: q
Encoding: 113 113 35
Width: 493
VWidth: 838
Flags: HMW
LayerCount: 2
Back
SplineSet
348 375 m 2
 348 395 310 415 263 415 c 3
 175 415 121 323 121 232 c 3
 121 133 162 40 254 40 c 3
 309 40 348 100 348 120 c 2
 348 375 l 2
373 420 m 1
 408 450 l 1
 428 450 l 1
 428 -170 l 1
 488 -190 l 1
 488 -210 l 1
 408 -225 388 -235 358 -250 c 1
 348 -250 l 1
 348 50 l 1
 348 50 299 -10 238 -10 c 3
 118 -10 31 95 31 217 c 3
 31 358 128 460 268 460 c 3
 334 460 373 420 373 420 c 1
EndSplineSet
Fore
SplineSet
428 -170 m 1
 488 -180 l 1
 488 -210 l 1
 288 -210 l 1
 288 -180 l 1
 348 -170 l 1
 348 50 l 1
 348 50 299 -10 238 -10 c 3
 118 -10 31 95 31 217 c 3
 31 358 128 460 268 460 c 3
 334 460 373 420 373 420 c 1
 408 450 l 1
 428 450 l 1
 428 -170 l 1
348 375 m 2
 348 395 310 415 263 415 c 3
 175 415 121 323 121 232 c 3
 121 133 162 40 254 40 c 3
 309 40 348 100 348 120 c 2
 348 375 l 2
EndSplineSet
Validated: 1
EndChar

StartChar: m
Encoding: 109 109 36
Width: 753
VWidth: 838
Flags: HMW
LayerCount: 2
Back
SplineSet
424 460 m 5
 424 400 l 5
 424 400 470 460 561 460 c 7
 667 460 673 410 673 298 c 6
 673 30 l 5
 733 20 l 5
 733 0 l 5
 534 0 l 5
 534 20 l 5
 594 30 l 5
 594 280 l 6
 594 354 591 410 520 410 c 7
 459.966796875 410 424 350 424 330 c 6
 424 30 l 5
 484 20 l 5
 484 0 l 5
 284 0 l 5
 284 20 l 5
 344 30 l 5
 344 380 l 5
 274 400 l 5
 274 420 l 5
 354 435 384 445 414 460 c 5
 424 460 l 5
175 460 m 1
 175 400 l 1
 175 400 221 460 312 460 c 3
 418 460 424 410 424 298 c 2
 424 30 l 1
 484 20 l 1
 484 0 l 1
 285 0 l 1
 285 20 l 1
 345 30 l 1
 345 280 l 2
 345 354 342 410 271 410 c 3
 210.966796875 410 175 350 175 330 c 2
 175 30 l 1
 235 20 l 1
 235 0 l 1
 35 0 l 1
 35 20 l 1
 95 30 l 1
 95 380 l 1
 25 400 l 1
 25 420 l 1
 105 435 135 445 165 460 c 1
 175 460 l 1
EndSplineSet
Fore
SplineSet
418 392 m 1
 418 392 462 460 561 460 c 3
 667 460 673 410 673 298 c 2
 673 40 l 5
 733 30 l 5
 733 0 l 1
 534 0 l 1
 534 30 l 5
 594 40 l 5
 594 280 l 2
 594 354 591 410 520 410 c 3
 460 410 424 350 424 330 c 2
 424 40 l 5
 484 30 l 5
 484 0 l 1
 285 0 l 1
 285 30 l 5
 345 40 l 5
 345 280 l 2
 345 357 341 410 271 410 c 3
 211 410 175 350 175 330 c 2
 175 40 l 5
 235 30 l 5
 235 0 l 1
 35 0 l 1
 35 30 l 5
 95 40 l 5
 95 380 l 1
 25 400 l 1
 25 420 l 1
 105 435 135 445 165 460 c 1
 175 460 l 1
 175 400 l 1
 175 400 221 460 312 460 c 3
 402 460 410 421 418 392 c 1
EndSplineSet
Validated: 1
EndChar

StartChar: n
Encoding: 110 110 37
Width: 515
VWidth: 838
Flags: HMW
AnchorPoint: "upper" 265 510 basechar 0
LayerCount: 2
Back
SplineSet
95 380 m 1
 35 400 l 1
 35 420 l 1
 115 435 135 445 165 460 c 1
 175 460 l 1
 175 400 l 1
 175 400 224 460 285 460 c 3
 314 460 340 439 340 410 c 3
 340 383 318 360 290 360 c 3
 262 360 256 390 230 390 c 3
 205 390 175 350 175 330 c 2
 175 30 l 1
 235 20 l 1
 235 0 l 1
 35 0 l 1
 35 20 l 1
 95 30 l 1
 95 380 l 1
EndSplineSet
Fore
SplineSet
175 460 m 1
 175 400 l 1
 175 400 221 460 322 460 c 3
 428 460 435 410 435 298 c 2
 435 40 l 5
 495 30 l 5
 495 0 l 1
 295 0 l 1
 295 30 l 5
 355 40 l 5
 355 280 l 2
 355 354 352 410 281 410 c 3
 211 410 175 350 175 330 c 2
 175 40 l 5
 235 30 l 5
 235 0 l 1
 35 0 l 1
 35 30 l 5
 95 40 l 5
 95 380 l 1
 25 400 l 1
 25 420 l 1
 105 435 135 445 165 460 c 1
 175 460 l 1
EndSplineSet
Validated: 1
EndChar

StartChar: K
Encoding: 75 75 38
Width: 600
VWidth: 838
Flags: HMW
LayerCount: 2
Back
SplineSet
507 320 m 1
 190 320 l 1
 190 35 l 1
 265 20 l 1
 265 0 l 1
 25 0 l 1
 25 20 l 1
 100 35 l 1
 100 615 l 1
 24 630 l 1
 24 651 l 1
 265 651 l 1
 265 630 l 1
 190 615 l 1
 190 380 l 1
 507 380 l 1
 507 615 l 1
 431 631 l 1
 431 651 l 1
 669 651 l 1
 669 630 l 1
 595 615 l 1
 595 35 l 5
 669 18 l 5
 669 0 l 5
 431 0 l 5
 431 19 l 5
 507 35 l 5
 507 320 l 1
EndSplineSet
Fore
SplineSet
499 45 m 1
 580 30 l 5
 580 0 l 1
 436 0 l 1
 245 323 l 1
 190 260 l 1
 190 45 l 1
 265 30 l 1
 265 0 l 1
 25 0 l 1
 25 30 l 1
 100 45 l 1
 100 605 l 1
 25 620 l 1
 25 650 l 1
 265 650 l 1
 265 620 l 1
 190 605 l 1
 190 350 l 1
 392 580 l 2
 399 588 403 595 403 602 c 3
 403 619 381 630 352 630 c 1
 352 650 l 1
 562 650 l 1
 562 630 l 1
 522 630 498 610 472 580 c 2
 299 384 l 1
 499 45 l 1
EndSplineSet
Validated: 1
EndChar

StartChar: M
Encoding: 77 77 39
Width: 850
VWidth: 838
Flags: HMW
LayerCount: 2
Fore
SplineSet
439 177 m 1
 628 650 l 1
 825 650 l 1
 825 620 l 1
 750 605 l 1
 750 45 l 5
 825 30 l 5
 825 0 l 1
 585 0 l 1
 585 30 l 5
 660 45 l 5
 660 555 l 1
 438 0 l 1
 413 0 l 1
 180 555 l 1
 180 45 l 5
 255 30 l 5
 255 0 l 1
 25 0 l 1
 25 30 l 5
 100 45 l 5
 100 605 l 1
 25 620 l 1
 25 650 l 1
 240 650 l 1
 439 177 l 1
EndSplineSet
Validated: 1
EndChar

StartChar: N
Encoding: 78 78 40
Width: 700
VWidth: 838
Flags: HMW
AnchorPoint: "upper" 350 700 basechar 0
LayerCount: 2
Fore
SplineSet
615 0 m 1
 575 0 l 1
 180 564 l 1
 180 45 l 1
 255 30 l 1
 255 0 l 1
 25 0 l 1
 25 30 l 1
 100 45 l 1
 100 605 l 5
 25 620 l 5
 25 650 l 1
 220 650 l 1
 525 214 l 1
 525 605 l 5
 450 620 l 5
 450 650 l 1
 690 650 l 1
 690 620 l 5
 615 605 l 5
 615 0 l 1
EndSplineSet
Validated: 1
EndChar

StartChar: T
Encoding: 84 84 41
Width: 640
VWidth: 838
Flags: HMW
LayerCount: 2
Fore
SplineSet
200 30 m 5
 275 45 l 5
 275 590 l 1
 100 590 l 1
 65 548 50 525 30 470 c 1
 10 470 l 1
 40 650 l 1
 600 650 l 1
 630 470 l 1
 610 470 l 1
 590 525 575 548 540 590 c 1
 365 590 l 1
 365 45 l 5
 440 30 l 5
 440 0 l 1
 200 0 l 1
 200 30 l 5
EndSplineSet
Validated: 1
EndChar

StartChar: U
Encoding: 85 85 42
Width: 630
VWidth: 838
Flags: HMW
AnchorPoint: "upper" 325 700 basechar 0
LayerCount: 2
Fore
SplineSet
185 191 m 2
 185 89 226 31 326 31 c 3
 465 31 465 108 465 252 c 2
 465 605 l 5
 390 620 l 5
 390 650 l 1
 620 650 l 1
 620 620 l 5
 545 605 l 5
 545 217 l 2
 545 65 472 -9 322 -9 c 3
 212 -9 127 35 104 122 c 0
 99 142 95 170 95 204 c 2
 95 605 l 5
 20 620 l 5
 20 650 l 1
 260 650 l 1
 260 620 l 5
 185 605 l 5
 185 191 l 2
EndSplineSet
Validated: 1
EndChar

StartChar: V
Encoding: 86 86 43
Width: 594
VWidth: 838
Flags: HMW
LayerCount: 2
Fore
SplineSet
90 570 m 2
 79 600 60 620 20 620 c 1
 20 650 l 1
 230 650 l 1
 230 620 l 1
 198 620 177 608 177 586 c 3
 177 581 178 576 180 570 c 2
 316 200 l 1
 444 570 l 2
 446 576 448 582 448 587 c 3
 448 609 427 620 394 620 c 1
 394 650 l 1
 574 650 l 1
 574 620 l 1
 534 620 515 600 504 570 c 2
 303 -10 l 1
 90 570 l 2
EndSplineSet
Validated: 1
EndChar

StartChar: W
Encoding: 87 87 44
Width: 894
VWidth: 838
Flags: HMW
LayerCount: 2
Fore
SplineSet
390 570 m 2
 379 600 360 620 320 620 c 1
 320 650 l 1
 530 650 l 1
 530 620 l 1
 498 620 477 608 477 586 c 3
 477 581 478 576 480 570 c 2
 616 200 l 1
 744 570 l 2
 746 576 748 582 748 587 c 3
 748 609 727 620 694 620 c 1
 694 650 l 1
 874 650 l 1
 874 620 l 1
 834 620 815 600 804 570 c 2
 603 -10 l 1
 449 409 l 1
 303 -10 l 1
 90 570 l 2
 79 600 60 620 20 620 c 1
 20 650 l 1
 230 650 l 1
 230 620 l 1
 198 620 177 608 177 586 c 3
 177 581 178 576 180 570 c 2
 316 200 l 1
 418 493 l 1
 390 570 l 2
EndSplineSet
Validated: 1
EndChar

StartChar: Y
Encoding: 89 89 45
Width: 600
VWidth: 838
Flags: HMW
AnchorPoint: "upper" 315 700 basechar 0
LayerCount: 2
Fore
SplineSet
166 30 m 1
 256 45 l 1
 256 279 l 1
 90 570 l 2
 73 600 60 620 20 620 c 1
 20 650 l 1
 230 650 l 1
 230 620 l 1
 198 620 175 607 175 587 c 3
 175 582 177 576 180 570 c 2
 319 328 l 1
 450 570 l 2
 453 576 455 582 455 587 c 3
 455 607 432 620 400 620 c 1
 400 650 l 1
 580 650 l 1
 580 620 l 1
 540 620 526 600 510 570 c 2
 346 264 l 1
 346 45 l 1
 436 30 l 1
 436 0 l 1
 166 0 l 1
 166 30 l 1
EndSplineSet
Validated: 1
EndChar

StartChar: P
Encoding: 80 80 46
Width: 544
VWidth: 838
Flags: HMW
LayerCount: 2
Fore
SplineSet
25 650 m 1
 292 650 l 2
 394 650 471 610 503 540 c 0
 514 515 519 490 519 459 c 3
 519 364 452 312 374 292 c 0
 345 285 312 281 276 281 c 2
 190 281 l 1
 190 45 l 1
 265 30 l 1
 265 0 l 1
 25 0 l 1
 25 30 l 1
 100 45 l 1
 100 605 l 1
 25 620 l 1
 25 650 l 1
190 336 m 1
 252 336 l 2
 362 336 419 382 419 467 c 3
 419 569 370 600 267 600 c 2
 190 600 l 1
 190 336 l 1
EndSplineSet
Validated: 1
EndChar

StartChar: R
Encoding: 82 82 47
Width: 619
VWidth: 838
Flags: HMW
LayerCount: 2
Back
SplineSet
26 650 m 5
 293 650 l 6
 395 650 472 610 504 540 c 4
 515 515 520 490 520 459 c 7
 520 364 453 312 375 292 c 4
 346 285 313 281 277 281 c 6
 191 281 l 5
 191 35 l 5
 266 20 l 5
 266 0 l 5
 26 0 l 5
 26 20 l 5
 101 35 l 5
 101 615 l 5
 26 630 l 5
 26 650 l 5
191 336 m 5
 253 336 l 6
 363 336 420 382 420 467 c 7
 420 569 371 601 268 601 c 6
 191 601 l 5
 191 336 l 5
EndSplineSet
Fore
SplineSet
282 281 m 1
 191 281 l 1
 191 45 l 1
 266 30 l 1
 266 0 l 1
 25 0 l 1
 25 30 l 1
 101 45 l 1
 101 605 l 1
 26 620 l 1
 26 650 l 1
 284 650 l 2
 384 650 461 614 494 546 c 0
 505 523 511 496 511 467 c 3
 511 374 448 310 368 290 c 1
 518 45 l 1
 599 30 l 1
 599 0 l 1
 449 0 l 1
 282 281 l 1
245 336 m 2
 349 336 411 372 411 472 c 3
 411 571 359 600 259 600 c 2
 191 600 l 1
 191 336 l 1
 245 336 l 2
EndSplineSet
Validated: 1
EndChar

StartChar: S
Encoding: 83 83 48
Width: 461
VWidth: 838
Flags: HMW
LayerCount: 2
Back
SplineSet
166 -10 m 7
 -24 -10 -139 140 -139 330 c 7
 -139 520 -24 660 166 660 c 7
 281 660 347 605 347 605 c 5
 392 650 l 5
 412 650 l 5
 412 460 l 5
 382 460 l 5
 382 460 316 600 166 600 c 7
 16 600 -34 480 -34 330 c 7
 -34 180 16 45 166 45 c 7
 316 45 377 154 377 154 c 5
 412 134 l 5
 412 134 356 -10 166 -10 c 7
EndSplineSet
Fore
SplineSet
224 50 m 3
 295 50 350 86 350 155 c 3
 350 227 246 270 194 298 c 0
 125 334 40 377 40 482 c 3
 40 589 121 659 228 659 c 3
 286 659 325 636 358 605 c 1
 383 650 l 1
 398 650 l 1
 398 460 l 1
 373 460 l 1
 354 540 317 607 232 607 c 3
 170 607 129 573 129 512 c 3
 129 468 151 455 176 433 c 0
 262 359 426 341 426 182 c 3
 426 69 339 -10 227 -10 c 3
 170 -10 133 10 93 35 c 1
 58 0 l 1
 43 0 l 1
 43 200 l 1
 63 200 l 1
 87 103 122 50 224 50 c 3
EndSplineSet
Validated: 1
EndChar

StartChar: asciitilde
Encoding: 126 126 49
Width: 490
VWidth: 838
Flags: HMW
LayerCount: 2
Fore
SplineSet
150 245 m 3
 115 245 100 230 90 200 c 1
 65 210 l 1
 65 260 105 295 165 295 c 3
 235 295 270 250 340 250 c 3
 375 250 390 265 400 295 c 1
 425 285 l 1
 425 235 385 200 325 200 c 3
 255 200 220 245 150 245 c 3
EndSplineSet
Validated: 1
EndChar

StartChar: bar
Encoding: 124 124 50
Width: 220
VWidth: 838
Flags: HMW
LayerCount: 2
Fore
SplineSet
80 -75 m 5
 80 700 l 1
 140 700 l 1
 140 -75 l 5
 80 -75 l 5
EndSplineSet
Validated: 1
EndChar

StartChar: braceleft
Encoding: 123 123 51
Width: 285
VWidth: 838
Flags: HMW
LayerCount: 2
Fore
SplineSet
161 -4 m 3
 161 -52 172 -80 216 -80 c 3
 227 -80 240 -78 251 -75 c 1
 255 -100 l 1
 235 -107 221 -111 196 -111 c 3
 122 -111 89 -82 89 -8 c 3
 89 68 110 132 110 210 c 3
 110 280 96 317 30 317 c 1
 30 335 l 1
 92 335 110 371 110 436 c 3
 110 506 89 568 89 636 c 3
 89 706 131 743 202 743 c 3
 224 743 239 737 255 731 c 1
 251 710 l 1
 235 712 230 714 216 714 c 3
 176 714 161 676 161 634 c 3
 161 568 182 504 182 437 c 3
 182 379 162 342 122 326 c 1
 122 323 l 1
 164 306 182 278 182 218 c 3
 182 143 161 71 161 -4 c 3
EndSplineSet
Validated: 1
EndChar

StartChar: braceright
Encoding: 125 125 52
Width: 285
VWidth: 838
Flags: HMW
LayerCount: 2
Fore
SplineSet
197 -8 m 7
 197 -82 164 -111 90 -111 c 7
 65 -111 50 -107 30 -100 c 5
 35 -75 l 5
 46 -78 57 -80 69 -80 c 7
 113 -80 125 -52 125 -4 c 7
 125 69 104 142 104 218 c 3
 104 278 122 306 164 323 c 1
 164 326 l 1
 124 342 104 379 104 437 c 3
 104 505 125 568 125 634 c 3
 125 676 109 714 69 714 c 3
 55 714 51 712 35 710 c 1
 30 731 l 1
 46 737 62 743 84 743 c 3
 155 743 197 706 197 636 c 3
 197 568 176 505 176 436 c 3
 176 371 193 335 255 335 c 1
 255 317 l 1
 189 317 176 280 176 210 c 3
 176 132 197 67 197 -8 c 7
EndSplineSet
Validated: 1
EndChar

StartChar: Z
Encoding: 90 90 53
Width: 531
VWidth: 838
Flags: HMW
LayerCount: 2
Fore
SplineSet
411 60 m 1
 446 102 461 125 481 180 c 1
 501 180 l 1
 471 0 l 1
 20 0 l 1
 20 20 l 1
 385 590 l 1
 110 590 l 1
 75 548 60 525 40 470 c 1
 20 470 l 1
 50 650 l 1
 500 650 l 1
 500 630 l 1
 136 60 l 1
 411 60 l 1
EndSplineSet
Validated: 1
EndChar

StartChar: X
Encoding: 88 88 54
Width: 623
VWidth: 838
Flags: HMW
LayerCount: 2
Fore
SplineSet
413 620 m 1
 413 650 l 1
 592 650 l 1
 592 620 l 1
 552 620 535 600 513 570 c 2
 348 340 l 1
 523 80 l 2
 543 50 553 30 603 30 c 1
 603 0 l 1
 383 0 l 1
 383 30 l 1
 420 30 441 41 441 59 c 3
 441 65 438 72 433 80 c 2
 301 276 l 1
 160 80 l 2
 154 72 151 64 151 58 c 3
 151 41 171 30 200 30 c 1
 200 0 l 1
 20 0 l 1
 20 30 l 1
 60 30 79 50 100 80 c 2
 272 319 l 1
 106 570 l 2
 86 600 76 620 26 620 c 1
 26 650 l 1
 246 650 l 1
 246 620 l 1
 209 620 188 609 188 591 c 3
 188 585 191 578 196 570 c 2
 319 385 l 1
 453 570 l 2
 459 578 462 585 462 592 c 3
 462 609 442 620 413 620 c 1
EndSplineSet
Validated: 1
EndChar

StartChar: equal
Encoding: 61 61 55
Width: 480
VWidth: 838
Flags: HMW
LayerCount: 2
Fore
SplineSet
70 341 m 1
 70 381 l 1
 410 381 l 1
 410 341 l 1
 70 341 l 1
70 201 m 1
 70 241 l 1
 410 241 l 1
 410 201 l 1
 70 201 l 1
EndSplineSet
Validated: 1
EndChar

StartChar: less
Encoding: 60 60 56
Width: 438
VWidth: 838
Flags: HMW
LayerCount: 2
Fore
SplineSet
35 264 m 1
 35 308 l 1
 378 471 l 1
 378 420 l 1
 96 291 l 1
 96 287 l 1
 378 157 l 1
 378 102 l 1
 35 264 l 1
EndSplineSet
Validated: 1
EndChar

StartChar: greater
Encoding: 62 62 57
Width: 437
VWidth: 838
Flags: HMW
LayerCount: 2
Fore
SplineSet
60 106 m 1
 60 157 l 1
 342 287 l 1
 342 291 l 1
 60 420 l 1
 60 475 l 1
 402 312 l 1
 402 269 l 1
 60 106 l 1
EndSplineSet
Validated: 1
EndChar

StartChar: at
Encoding: 64 64 58
Width: 731
VWidth: 838
Flags: HMW
LayerCount: 2
Fore
SplineSet
373 -82 m 0
 437 -82 483 -72 521 -49 c 1
 530 -73 l 1
 474 -101 414 -115 351 -115 c 0
 211 -115 119 -55 74 42 c 0
 57 79 50 124 50 176 c 0
 50 388 193 541 404 541 c 0
 535 541 624 475 661 381 c 0
 673 349 681 316 681 280 c 0
 681 209 656 148 624 106 c 0
 595 68 550 31 488 31 c 0
 439 31 401 56 401 100 c 0
 401 110 400 115 405 120 c 1
 402 121 l 1
 381 92 359 71 337 60 c 0
 315 49 294 42 273 42 c 0
 215 42 187 83 187 141 c 0
 187 207 220 270 253 309 c 0
 285 346 335 391 397 391 c 0
 430 391 450 377 462 357 c 1
 466 357 l 1
 475 391 l 1
 542 391 l 1
 474 148 l 2
 470 137 466 119 466 105 c 0
 466 80 478 73 501 73 c 0
 544 73 577 102 597 131 c 0
 622 166 640 218 640 278 c 0
 640 395 575 464 486 491 c 0
 457 500 427 504 396 504 c 0
 296 504 224 459 176 403 c 0
 129 348 96 270 96 175 c 0
 96 105 115 45 150 3 c 0
 195 -52 269 -82 373 -82 c 0
260 144 m 0
 260 111 267 88 296 88 c 0
 314 88 330 94 349 110 c 0
 382 138 408 183 426 233 c 0
 434 257 438 280 438 305 c 0
 438 334 430 354 401 354 c 0
 385 354 368 348 351 336 c 0
 316 310 289 268 273 220 c 0
 265 195 260 170 260 144 c 0
EndSplineSet
Validated: 1
EndChar

StartChar: colon
Encoding: 58 58 59
Width: 220
VWidth: 838
Flags: HMW
LayerCount: 2
Fore
SplineSet
110 -10 m 7
 80 -10 55 16 55 45 c 7
 55 77 78 100 110 100 c 7
 143 100 165 78 165 45 c 7
 165 14 142 -10 110 -10 c 7
110 281 m 7
 80 281 55 307 55 336 c 7
 55 368 78 391 110 391 c 7
 143 391 165 369 165 336 c 7
 165 305 142 281 110 281 c 7
EndSplineSet
Validated: 1
EndChar

StartChar: semicolon
Encoding: 59 59 60
Width: 220
VWidth: 838
Flags: HMW
LayerCount: 2
Back
SplineSet
110 -10 m 7
 80 -10 55 16 55 45 c 7
 55 77 78 100 110 100 c 7
 143 100 165 78 165 45 c 7
 165 14 142 -10 110 -10 c 7
110 281 m 7
 80 281 55 307 55 336 c 7
 55 368 78 391 110 391 c 7
 143 391 165 369 165 336 c 7
 165 305 142 281 110 281 c 7
EndSplineSet
Fore
SplineSet
110 281 m 3
 80 281 55 307 55 336 c 3
 55 368 78 391 110 391 c 3
 143 391 165 369 165 336 c 3
 165 305 142 281 110 281 c 3
110 100 m 3
 150 100 165 62 165 19 c 3
 165 -51 131 -99 84 -132 c 1
 67 -108 l 1
 83 -97 96 -83 105 -70 c 0
 114 -57 119 -45 119 -36 c 3
 119 -17 99 -9 87 -2 c 0
 71 7 55 19 55 45 c 3
 55 77 78 100 110 100 c 3
EndSplineSet
Validated: 1
EndChar

StartChar: Q
Encoding: 81 81 61
Width: 705
VWidth: 838
Flags: HMW
LayerCount: 2
Back
SplineSet
345 660 m 7
 535 660 650 520 650 330 c 7
 650 140 535 -10 345 -10 c 7
 155 -10 40 140 40 330 c 7
 40 520 155 660 345 660 c 7
145 330 m 7
 145 180 195 45 345 45 c 7
 495 45 545 180 545 330 c 7
 545 480 495 600 345 600 c 7
 195 600 145 480 145 330 c 7
EndSplineSet
Fore
SplineSet
145 330 m 3
 145 180 195 45 345 45 c 3
 495 45 545 180 545 330 c 3
 545 480 495 600 345 600 c 3
 195 600 145 480 145 330 c 3
345 660 m 3
 535 660 650 520 650 330 c 3
 650 223 614 130 549 68 c 1
 556 51 590 13 670 -26 c 1
 642 -75 l 1
 481 -51 465 -10 345 -10 c 3
 155 -10 40 140 40 330 c 3
 40 520 155 660 345 660 c 3
EndSplineSet
Validated: 1
EndChar

StartChar: plus
Encoding: 43 43 62
Width: 530
VWidth: 838
Flags: HMW
LayerCount: 2
Fore
SplineSet
65 230 m 1
 65 270 l 1
 245 270 l 1
 245 450 l 1
 285 450 l 1
 285 270 l 1
 465 270 l 1
 465 230 l 1
 285 230 l 1
 285 50 l 1
 245 50 l 1
 245 230 l 1
 65 230 l 1
EndSplineSet
Validated: 1
EndChar

StartChar: comma
Encoding: 44 44 63
Width: 220
VWidth: 838
Flags: HMW
LayerCount: 2
Fore
SplineSet
110 100 m 7
 150 100 165 62 165 19 c 7
 165 -51 131 -99 84 -132 c 5
 67 -108 l 5
 83 -97 96 -83 105 -70 c 4
 114 -57 119 -45 119 -36 c 7
 119 -17 99 -9 87 -2 c 4
 71 7 55 19 55 45 c 7
 55 77 78 100 110 100 c 7
EndSplineSet
Validated: 1
EndChar

StartChar: quotesingle
Encoding: 39 39 64
Width: 149
VWidth: 838
Flags: HMW
LayerCount: 2
Fore
SplineSet
74 701 m 3
 103 701 119 682 119 654 c 3
 119 624 110 593 104 563 c 0
 97 523 89 477 88 429 c 1
 62 429 l 1
 60 498 45 557 34 613 c 0
 31 629 30 640 30 650 c 3
 30 680 45 701 74 701 c 3
EndSplineSet
Validated: 1
EndChar

StartChar: quotedbl
Encoding: 34 34 65
Width: 277
VWidth: 838
Flags: HMW
LayerCount: 2
Fore
SplineSet
74 701 m 3
 103 701 119 682 119 654 c 3
 119 624 110 593 104 563 c 0
 97 523 89 477 88 429 c 1
 62 429 l 1
 60 498 45 557 34 613 c 0
 31 629 30 640 30 650 c 3
 30 680 45 701 74 701 c 3
202 701 m 3
 231 701 247 682 247 654 c 3
 247 624 237 592 231 562 c 0
 224 522 216 477 215 429 c 1
 190 429 l 1
 188 498 173 557 162 613 c 0
 159 629 158 640 158 650 c 3
 158 680 173 701 202 701 c 3
EndSplineSet
Validated: 1
EndChar

StartChar: numbersign
Encoding: 35 35 66
Width: 568
VWidth: 838
Flags: HMW
LayerCount: 2
Fore
SplineSet
436 588 m 1
 413 445 l 1
 533 445 l 1
 523 398 l 1
 406 398 l 1
 386 272 l 1
 503 272 l 1
 492 224 l 1
 378 224 l 1
 357 83 l 1
 309 83 l 1
 331 224 l 1
 206 224 l 1
 184 83 l 1
 135 83 l 1
 157 224 l 1
 35 224 l 1
 47 272 l 1
 164 272 l 1
 185 398 l 1
 67 398 l 1
 77 445 l 1
 192 445 l 1
 215 588 l 1
 264 588 l 1
 241 445 l 1
 366 445 l 1
 389 588 l 1
 436 588 l 1
213 272 m 1
 338 272 l 1
 359 398 l 1
 234 398 l 1
 213 272 l 1
EndSplineSet
Validated: 1
EndChar

StartChar: dollar
Encoding: 36 36 67
Width: 444
VWidth: 838
Flags: HMWO
LayerCount: 2
Back
SplineSet
246 56 m 0
 317 56 371 91 371 160 c 3
 371 201 349 211 323 233 c 0
 294 258 253 279 216 298 c 0
 159 328 105 358 76 417 c 0
 67 435 63 458 63 482 c 3
 63 567 114 621 176 645 c 0
 199 654 222 659 249 659 c 3
 307 659 343 638 376 607 c 1
 403 651 l 1
 420 651 l 1
 427 466 l 1
 405 466 l 1
 392 520 372 544 348 569 c 0
 324 594 293 607 254 607 c 3
 192 607 151 572 151 511 c 3
 151 467 173 455 198 433 c 0
 227 408 265 390 300 371 c 0
 356 341 407 310 435 252 c 0
 443 234 448 212 448 187 c 3
 448 128 422 82 390 52 c 0
 357 22 309 -3 249 -3 c 0
 192 -3 155 15 115 39 c 1
 81 5 l 1
 64 5 l 1
 49 220 l 1
 70 225 l 1
 87 157 108 131 136 101 c 0
 164 71 200 56 246 56 c 0
EndSplineSet
Fore
SplineSet
247 34 m 1
 294 45 327 81 327 138 c 3
 327 167 319 190 303 210 c 0
 287 230 270 244 247 260 c 1
 247 34 l 1
247 749 m 1
 247 660 l 1
 308 657 359 631 384 591 c 0
 390 579 395 564 395 550 c 3
 395 521 377 500 348 500 c 3
 313 500 305 528 298 557 c 0
 289 590 278 613 247 622 c 1
 247 383 l 1
 304 351 361 319 390 259 c 0
 399 239 404 216 404 189 c 3
 404 107 362 47 309 18 c 0
 289 7 270 -1 247 -5 c 1
 247 -81 l 1
 196 -81 l 1
 196 -5 l 1
 132 -1 80 25 54 64 c 0
 45 77 40 90 40 106 c 3
 40 135 56 156 85 156 c 3
 140 156 130 85 155 56 c 0
 164 45 178 38 196 34 c 1
 196 292 l 1
 142 322 90 354 62 410 c 0
 53 430 48 452 48 479 c 3
 48 559 89 613 144 640 c 0
 160 648 177 653 196 657 c 1
 196 749 l 1
 247 749 l 1
196 620 m 1
 158 608 135 574 135 526 c 3
 135 498 143 476 157 456 c 0
 167 441 181 428 196 417 c 1
 196 620 l 1
EndSplineSet
Validated: 1
EndChar

StartChar: percent
Encoding: 37 37 68
Width: 677
VWidth: 838
Flags: HMW
LayerCount: 2
Fore
SplineSet
162 628 m 3
 124 628 117 590 113 552 c 0
 111 532 110 507 110 478 c 3
 110 429 111 392 122 361 c 0
 129 342 139 332 162 332 c 3
 201 332 208 368 212 406 c 0
 214 426 215 449 215 478 c 3
 215 527 214 566 203 598 c 0
 197 618 186 628 162 628 c 3
515 348 m 3
 557 348 589 323 609 295 c 0
 632 264 647 219 647 167 c 3
 647 91 615 32 566 4 c 0
 550 -5 534 -10 515 -10 c 3
 473 -10 441 13 421 40 c 0
 398 70 383 116 383 167 c 3
 383 245 414 305 463 334 c 0
 479 343 496 348 515 348 c 3
515 318 m 3
 477 318 469 280 465 242 c 0
 463 222 463 197 463 168 c 3
 463 119 463 82 474 51 c 0
 481 32 492 22 515 22 c 3
 554 22 560 57 564 95 c 0
 566 115 567 139 567 168 c 3
 567 217 566 256 555 288 c 0
 549 308 539 318 515 318 c 3
478 602 m 1
 445 583 413 579 373 579 c 3
 337 579 303 579 261 595 c 1
 261 595 277 571 283 549 c 0
 289 527 295 502 295 477 c 3
 295 401 263 344 214 316 c 0
 198 307 181 302 162 302 c 3
 120 302 88 326 68 353 c 0
 45 383 30 426 30 477 c 3
 30 555 62 617 111 646 c 0
 127 655 143 660 162 660 c 3
 230 660 302 604 366 604 c 3
 417 604 465 619 508 650 c 1
 566 650 l 1
 169 0 l 1
 111 0 l 1
 478 602 l 1
EndSplineSet
Validated: 1
EndChar

StartChar: period
Encoding: 46 46 69
Width: 200
VWidth: 838
Flags: HMW
LayerCount: 2
Fore
SplineSet
100 -10 m 7
 70 -10 45 16 45 45 c 7
 45 77 68 100 100 100 c 7
 133 100 155 78 155 45 c 7
 155 14 132 -10 100 -10 c 7
EndSplineSet
Validated: 1
EndChar

StartChar: exclam
Encoding: 33 33 71
Width: 220
VWidth: 838
Flags: HMW
LayerCount: 2
Fore
SplineSet
94 150 m 1
 88 248 79 347 69 436 c 0
 61 507 50 576 50 634 c 0
 50 672 71 700 110 700 c 0
 150 700 170 672 170 634 c 0
 170 577 158 509 150 440 c 0
 140 350 130 249 124 150 c 1
 94 150 l 1
109 -10 m 3
 79 -10 54 16 54 45 c 3
 54 77 77 100 109 100 c 3
 142 100 164 78 164 45 c 3
 164 14 141 -10 109 -10 c 3
EndSplineSet
Validated: 1
EndChar

StartChar: zero
Encoding: 48 48 72
Width: 527
VWidth: 838
Flags: HMW
LayerCount: 2
Fore
SplineSet
262 660 m 3
 335 660 385 613 418 563 c 0
 456 504 482 419 482 324 c 3
 482 187 433 68 348 15 c 0
 321 -2 293 -10 262 -10 c 3
 189 -10 139 35 107 84 c 0
 70 141 45 228 45 322 c 3
 45 462 92 578 176 633 c 0
 203 651 231 660 262 660 c 3
262 615 m 3
 211 615 189 587 173 547 c 0
 149 487 145 417 145 325 c 3
 145 234 149 161 173 101 c 0
 189 62 211 35 262 35 c 3
 313 35 337 62 353 101 c 0
 377 160 382 234 382 325 c 3
 382 416 377 486 353 546 c 0
 337 586 313 615 262 615 c 3
EndSplineSet
Validated: 1
EndChar

StartChar: one
Encoding: 49 49 73
Width: 375
VWidth: 838
Flags: HMW
LayerCount: 2
Fore
SplineSet
40 550 m 1
 109 573 169 610 222 660 c 1
 240 650 l 1
 240 45 l 5
 350 30 l 5
 350 0 l 1
 40 0 l 1
 40 30 l 5
 150 45 l 5
 150 530 l 1
 40 530 l 1
 40 550 l 1
EndSplineSet
Validated: 1
EndChar

StartChar: two
Encoding: 50 50 74
Width: 491
VWidth: 838
Flags: HMW
LayerCount: 2
Fore
SplineSet
461 75 m 1
 426 0 l 1
 38 0 l 1
 30 20 l 1
 86 74 138 126 176 168 c 0
 214 210 245 249 269 283 c 0
 306 335 338 390 338 462 c 0
 338 535 300 595 229 595 c 0
 164 595 115 544 90 497 c 1
 70 507 l 1
 95 571 140 624 204 648 c 0
 224 655 245 659 266 659 c 0
 319 659 359 636 386 607 c 0
 414 578 434 535 434 479 c 0
 434 407 402 355 365 305 c 0
 303 222 235 148 145 75 c 1
 461 75 l 1
EndSplineSet
Validated: 1
EndChar

StartChar: three
Encoding: 51 51 75
Width: 461
VWidth: 838
Flags: HMW
LayerCount: 2
Fore
SplineSet
193 320 m 0
 177 320 163 318 146 316 c 1
 141 339 l 1
 186 359 220 384 245 413 c 0
 270 442 282 475 282 509 c 3
 282 559 254 600 207 600 c 3
 142 600 97 551 76 500 c 1
 56 505 l 1
 69 574 116 626 176 649 c 0
 196 656 217 660 240 660 c 3
 302 660 345 630 365 588 c 0
 371 572 375 557 375 539 c 3
 375 510 366 484 347 458 c 0
 328 432 303 407 270 387 c 1
 358 380 416 314 416 219 c 3
 416 151 385 90 350 54 c 0
 315 18 263 -10 195 -10 c 3
 127 -10 74 24 49 66 c 0
 41 80 35 94 35 110 c 0
 35 141 53 162 83 162 c 0
 120 162 131 127 140 98 c 0
 151 65 169 35 213 35 c 3
 273 35 310 79 328 123 c 0
 334 140 337 156 337 176 c 3
 337 243 297 288 249 309 c 0
 231 316 213 320 193 320 c 0
EndSplineSet
Validated: 1
EndChar

StartChar: four
Encoding: 52 52 76
Width: 508
VWidth: 838
Flags: HMW
LayerCount: 2
Fore
SplineSet
305 185 m 1
 40 185 l 1
 30 199 l 1
 368 660 l 1
 390 651 l 1
 390 245 l 1
 468 245 l 1
 468 185 l 1
 390 185 l 1
 390 35 l 1
 465 20 l 1
 465 0 l 1
 205 0 l 1
 205 20 l 1
 305 35 l 1
 305 185 l 1
305 492 m 1
 128 245 l 1
 305 245 l 1
 305 492 l 1
EndSplineSet
Validated: 1
EndChar

StartChar: five
Encoding: 53 53 77
Width: 466
VWidth: 838
Flags: HMW
LayerCount: 2
Fore
SplineSet
35 102 m 0
 35 132 50 151 79 151 c 0
 129 151 130 95 150 65 c 0
 161 47 180 35 210 35 c 3
 252 35 282 55 303 80 c 0
 326 107 341 147 341 194 c 3
 341 269 305 320 251 343 c 0
 232 350 213 354 190 354 c 3
 156 354 125 344 99 322 c 1
 67 322 l 1
 111 650 l 1
 398 650 l 1
 375 574 l 1
 160 574 l 1
 137 420 l 1
 162 428 181 433 211 433 c 3
 310 433 376 382 405 312 c 0
 415 287 421 259 421 229 c 3
 421 157 390 94 353 57 c 0
 316 20 259 -10 188 -10 c 3
 123 -10 72 21 47 61 c 0
 40 73 35 86 35 102 c 0
EndSplineSet
Validated: 1
EndChar

StartChar: six
Encoding: 54 54 78
Width: 499
Flags: HMW
LayerCount: 2
Back
SplineSet
153.927734375 350.391601562 m 5
 178.305664062 375.875976562 229.34375 393.985351562 279.677734375 393.985351562 c 4
 367.99609375 393.985351562 423.41015625 345.836914062 448.182617188 280.811523438 c 4
 457.125 257.337890625 461.596679688 231.348632812 461.596679688 202.846679688 c 4
 461.596679688 103.7421875 407.99609375 39.7978515625 335.428710938 11.70703125 c 4
 309.439453125 1.646484375 280.796875 -3.3837890625 249.499023438 -3.3837890625 c 4
 145.30078125 -3.3837890625 84.4755859375 53.3779296875 58.359375 133.264648438 c 4
 48.859375 162.327148438 44.1083984375 195.30078125 44.1083984375 232.1875 c 4
 44.1083984375 337.456054688 81.525390625 423.197265625 130.037109375 487.877929688 c 4
 185.637695312 562.012695312 265.131835938 621.0234375 360.158203125 656.3828125 c 5
 366.864257812 635.423828125 l 5
 313.696289062 607.067382812 263.91015625 558.200195312 227.701171875 510.09375 c 4
 195.396484375 467.171875 162.061523438 410.034179688 153.927734375 350.391601562 c 5
142.193359375 207.038085938 m 4
 142.193359375 117.658203125 173.46875 40.208984375 254.529296875 40.208984375 c 4
 329.76171875 40.208984375 361.834960938 107.133789062 361.834960938 188.594726562 c 4
 361.834960938 274.286132812 326.592773438 346.201171875 246.983398438 346.201171875 c 4
 204.919921875 346.201171875 170.579101562 326.384765625 152.252929688 300.9296875 c 5
 146.841796875 276.0390625 142.193359375 237.497070312 142.193359375 207.038085938 c 4
EndSplineSet
Fore
SplineSet
249 -9 m 3
 180 -9 130 18 96 55 c 0
 60 95 40 155 40 231 c 0
 40 339 78 424 127 491 c 0
 183 567 265 627 361 662 c 1
 368 641 l 1
 313 611 265 563 227 514 c 0
 194 471 159 411 152 351 c 1
 178 377 228 396 279 396 c 3
 336 396 384 373 413 342 c 0
 443 310 464 262 464 201 c 0
 464 134 440 84 404 50 c 0
 368 16 316 -9 249 -9 c 3
254 30 m 3
 331 30 363 104 363 187 c 0
 363 274 326 347 246 347 c 3
 203 347 169 327 150 301 c 1
 144 275 140 236 140 205 c 3
 140 113 171 30 254 30 c 3
EndSplineSet
Validated: 1
EndChar

StartChar: seven
Encoding: 55 55 79
Width: 433
VWidth: 838
Flags: HMW
LayerCount: 2
Fore
SplineSet
101 580 m 1
 77 560 66 545 47 516 c 1
 30 525 l 1
 85 650 l 1
 407 650 l 1
 413 637 l 1
 347 485 291 342 238 178 c 0
 226 141 209 89 193 38 c 0
 183 5 166 -10 140 -10 c 3
 114 -10 99 6 99 32 c 3
 99 43 103 55 109 71 c 0
 115 87 124 113 134 134 c 1
 325 580 l 1
 101 580 l 1
EndSplineSet
Validated: 1
EndChar

StartChar: eight
Encoding: 56 56 80
Width: 494
VWidth: 838
Flags: HMW
LayerCount: 2
Fore
SplineSet
310 374 m 1
 358 345 393 316 415 286 c 0
 437 256 449 222 449 185 c 0
 449 69 356 -10 240 -10 c 0
 131 -10 45 60 45 168 c 0
 45 257 103 305 172 341 c 1
 114 379 64 419 64 499 c 0
 64 600 145 660 247 660 c 0
 340 660 419 609 419 518 c 0
 419 458 383 410 310 374 c 1
242 621 m 0
 183 621 143 585 143 527 c 0
 143 453 207 420 271 391 c 1
 321 427 345 469 345 518 c 0
 345 580 304 621 242 621 c 0
252 35 m 0
 324 35 372 78 372 149 c 0
 372 244 292 283 209 320 c 1
 161 291 128 241 128 169 c 0
 128 88 172 35 252 35 c 0
EndSplineSet
Validated: 1
EndChar

StartChar: nine
Encoding: 57 57 81
Width: 503
VWidth: 838
Flags: HMW
LayerCount: 2
Fore
SplineSet
348 303 m 1
 323 278 273 259 222 259 c 3
 109 259 40 338 40 451 c 3
 40 577 127 660 253 660 c 3
 390 660 458 560 458 421 c 3
 458 316 411 222 362 158 c 0
 306 85 227 24 132 -10 c 1
 125 10 l 1
 178 39 229 89 265 137 c 0
 298 179 340 243 348 303 c 1
359 446 m 3
 359 536 330 610 248 610 c 3
 173 610 140 546 140 464 c 3
 140 378 175 315 255 315 c 3
 297 315 331 336 350 361 c 1
 355 386 359 416 359 446 c 3
EndSplineSet
Validated: 1
EndChar

StartChar: question
Encoding: 63 63 82
Width: 433
VWidth: 838
Flags: HMW
LayerCount: 2
Fore
SplineSet
108 575 m 7
 108 546 120 553 120 525 c 7
 120 502 100 490 81 490 c 7
 65 490 40 498 40 533 c 7
 40 613 107 700 225 700 c 7
 327 700 393 620 393 529 c 7
 393 450 335 386 288 352 c 4
 244 320 212 289 212 224 c 6
 212 180 l 29
 172 180 l 29
 172 226 l 6
 172 269 177 333 242 392 c 4
 282 429 303 468 303 515 c 7
 303 580 291 650 215 650 c 7
 140 650 108 605 108 575 c 7
192 -10 m 7
 162 -10 137 16 137 45 c 7
 137 77 160 100 192 100 c 7
 225 100 247 78 247 45 c 7
 247 14 224 -10 192 -10 c 7
EndSplineSet
Validated: 1
EndChar

StartChar: uni0000
Encoding: 0 0 83
Width: 724
VWidth: 838
Flags: HMW
LayerCount: 2
Fore
SplineSet
40 650 m 1
 684 650 l 1
 684 0 l 1
 40 0 l 1
 40 650 l 1
116 580 m 1
 116 75 l 1
 609 75 l 1
 609 580 l 1
 116 580 l 1
362 518 m 0
 330 518 315 499 305 473 c 0
 289 435 288 390 288 331 c 0
 288 295 289 265 293 237 c 1
 421 471 l 2
 420 473 l 0
 410 499 394 518 362 518 c 0
362 544 m 0
 409 544 441 514 462 482 c 0
 487 445 502 392 502 331 c 0
 502 243 473 169 418 136 c 0
 401 125 382 121 362 121 c 0
 315 121 282 149 262 180 c 0
 237 217 222 271 222 331 c 0
 222 420 253 493 307 528 c 0
 324 539 342 544 362 544 c 0
302 197 m 2
 303 195 304 191 305 189 c 0
 315 164 330 148 362 148 c 0
 394 148 410 165 420 190 c 0
 436 227 437 273 437 331 c 0
 437 370 436 404 431 433 c 1
 302 197 l 2
EndSplineSet
Validated: 1
EndChar

StartChar: plusminus
Encoding: 177 177 84
Width: 530
VWidth: 838
Flags: HMW
LayerCount: 2
Fore
SplineSet
65 110 m 5
 65 150 l 5
 465 150 l 5
 465 110 l 5
 65 110 l 5
65 370 m 5
 65 410 l 5
 245 410 l 5
 245 590 l 5
 285 590 l 5
 285 410 l 5
 465 410 l 5
 465 370 l 5
 285 370 l 5
 285 190 l 5
 245 190 l 5
 245 370 l 5
 65 370 l 5
EndSplineSet
Validated: 1
EndChar

StartChar: degree
Encoding: 176 176 87
Width: 238
VWidth: 838
Flags: HMW
LayerCount: 2
Fore
SplineSet
119 552 m 7
 76 552 40 589 40 631 c 7
 40 677 73 710 119 710 c 7
 167 710 198 679 198 631 c 7
 198 586 165 552 119 552 c 7
119 577 m 7
 151 577 173 600 173 631 c 7
 173 664 152 685 119 685 c 7
 87 685 65 663 65 631 c 7
 65 602 89 577 119 577 c 7
EndSplineSet
Validated: 1
EndChar

StartChar: acute
Encoding: 180 180 88
Width: 176
VWidth: 838
Flags: HMW
LayerCount: 2
Fore
SplineSet
156 664 m 3
 156 641 145 629 131 613 c 2
 47 509 l 1
 30 519 l 1
 77 661 l 2
 84 683 95 700 123 700 c 3
 143 700 156 684 156 664 c 3
EndSplineSet
Validated: 1
EndChar

StartChar: periodcentered
Encoding: 183 183 89
Width: 220
VWidth: 838
Flags: HMW
LayerCount: 2
Fore
SplineSet
110 550 m 7
 80 550 55 576 55 605 c 7
 55 637 78 660 110 660 c 7
 143 660 165 638 165 605 c 7
 165 574 142 550 110 550 c 7
EndSplineSet
Validated: 1
EndChar

StartChar: multiply
Encoding: 215 215 90
Width: 530
VWidth: 838
Flags: HMW
LayerCount: 2
Fore
SplineSet
138 98 m 5
 109 127 l 5
 237 254 l 5
 109 381 l 5
 138 410 l 5
 265 282 l 5
 392 410 l 5
 421 381 l 5
 293 254 l 5
 421 127 l 5
 392 98 l 5
 265 226 l 5
 138 98 l 5
EndSplineSet
Validated: 1
EndChar

StartChar: dieresis
Encoding: 168 168 91
Width: 340
VWidth: 838
Flags: HMW
LayerCount: 2
Fore
SplineSet
245 500 m 3
 215 500 190 526 190 555 c 3
 190 587 213 610 245 610 c 3
 278 610 300 588 300 555 c 3
 300 524 277 500 245 500 c 3
95 500 m 3
 65 500 40 526 40 555 c 3
 40 587 63 610 95 610 c 3
 128 610 150 588 150 555 c 3
 150 524 127 500 95 500 c 3
EndSplineSet
Validated: 1
EndChar

StartChar: macron
Encoding: 175 175 92
Width: 260
VWidth: 838
InSpiro: 1
Flags: HMW
LayerCount: 2
Fore
SplineSet
10 599 m 1
 10 659 l 1
 250 659 l 1
 250 599 l 1
 10 599 l 1
  Spiro
    10 599 v
    10 659 v
    250 659 v
    250 599 v
    0 0 z
  EndSpiro
EndSplineSet
Validated: 1
EndChar

StartChar: bracketleft
Encoding: 91 91 93
Width: 270
VWidth: 838
Flags: HMW
LayerCount: 2
Fore
SplineSet
80 -100 m 1
 80 735 l 1
 250 735 l 1
 250 710 l 1
 150 710 l 1
 150 -75 l 1
 250 -75 l 1
 250 -100 l 1
 80 -100 l 1
EndSplineSet
Validated: 1
EndChar

StartChar: backslash
Encoding: 92 92 94
Width: 297
VWidth: 838
Flags: HMW
LayerCount: 2
Fore
SplineSet
205 -137 m 5
 35 691 l 5
 94 691 l 5
 262 -137 l 5
 205 -137 l 5
EndSplineSet
Validated: 1
EndChar

StartChar: bracketright
Encoding: 93 93 95
Width: 269
VWidth: 838
Flags: HMW
LayerCount: 2
Fore
SplineSet
20 -100 m 1
 20 -75 l 1
 119 -75 l 1
 119 710 l 1
 20 710 l 1
 20 735 l 1
 189 735 l 1
 189 -100 l 1
 20 -100 l 1
EndSplineSet
Validated: 1
EndChar

StartChar: asciicircum
Encoding: 94 94 96
Width: 410
VWidth: 838
Flags: HMW
LayerCount: 2
Fore
SplineSet
38 450 m 1
 194 701 l 1
 221 701 l 1
 375 450 l 1
 340 450 l 1
 207 649 l 1
 74 450 l 1
 38 450 l 1
EndSplineSet
Validated: 1
EndChar

StartChar: underscore
Encoding: 95 95 97
Width: 566
VWidth: 811
Flags: HMW
LayerCount: 2
Fore
SplineSet
60 -36 m 1
 60 0 l 1
 506 0 l 1
 506 -36 l 1
 60 -36 l 1
EndSplineSet
Validated: 1
EndChar

StartChar: grave
Encoding: 96 96 98
Width: 176
VWidth: 838
Flags: HMW
LayerCount: 2
Fore
SplineSet
30 664 m 3
 30 684 43 700 63 700 c 3
 91 700 102 683 109 661 c 2
 156 519 l 1
 139 509 l 1
 55 613 l 2
 41 629 30 641 30 664 c 3
EndSplineSet
Validated: 1
EndChar

StartChar: quotedblleft
Encoding: 8220 8220 99
Width: 330
VWidth: 838
Flags: HMW
LayerCount: 2
Fore
SplineSet
245 468 m 3
 205 468 190 502 190 523 c 3
 190 612 224 667 271 700 c 1
 288 676 l 1
 272 665 259 651 250 638 c 0
 241 625 236 613 236 604 c 3
 236 585 256 577 268 570 c 0
 284 561 300 549 300 523 c 3
 300 491 277 468 245 468 c 3
95 468 m 3
 55 468 40 502 40 523 c 3
 40 612 74 667 121 700 c 1
 138 676 l 1
 122 665 109 651 100 638 c 0
 91 625 86 613 86 604 c 3
 86 585 106 577 118 570 c 0
 134 561 150 549 150 523 c 3
 150 491 127 468 95 468 c 3
EndSplineSet
Validated: 1
EndChar

StartChar: quotedblright
Encoding: 8221 8221 100
Width: 330
VWidth: 838
Flags: HMW
LayerCount: 2
Fore
SplineSet
235 700 m 3
 275 700 290 666 290 645 c 3
 290 556 256 501 209 468 c 1
 192 492 l 1
 208 503 221 517 230 530 c 0
 239 543 244 555 244 564 c 3
 244 583 224 591 212 598 c 0
 196 607 180 619 180 645 c 3
 180 677 203 700 235 700 c 3
85 700 m 3
 125 700 140 666 140 645 c 3
 140 556 106 501 59 468 c 1
 42 492 l 1
 58 503 71 517 80 530 c 0
 89 543 94 555 94 564 c 3
 94 583 74 591 62 598 c 0
 46 607 30 619 30 645 c 3
 30 677 53 700 85 700 c 3
EndSplineSet
Validated: 1
EndChar

StartChar: quoteleft
Encoding: 8216 8216 102
Width: 180
VWidth: 838
Flags: HMW
LayerCount: 2
Fore
SplineSet
95 468 m 3
 55 468 40 502 40 523 c 3
 40 612 74 667 121 700 c 1
 138 676 l 1
 122 665 109 651 100 638 c 0
 91 625 86 613 86 604 c 3
 86 585 106 577 118 570 c 0
 134 561 150 549 150 523 c 3
 150 491 127 468 95 468 c 3
EndSplineSet
Validated: 1
EndChar

StartChar: quoteright
Encoding: 8217 8217 103
Width: 180
VWidth: 838
Flags: HMW
LayerCount: 2
Fore
SplineSet
85 700 m 3
 125 700 140 666 140 645 c 3
 140 556 106 501 59 468 c 1
 42 492 l 1
 58 503 71 517 80 530 c 0
 89 543 94 555 94 564 c 3
 94 583 74 591 62 598 c 0
 46 607 30 619 30 645 c 3
 30 677 53 700 85 700 c 3
EndSplineSet
Validated: 1
EndChar

StartChar: ellipsis
Encoding: 8230 8230 104
Width: 700
VWidth: 838
Flags: HMW
LayerCount: 2
Fore
SplineSet
590 -10 m 7
 560 -10 535 16 535 45 c 7
 535 77 558 100 590 100 c 7
 623 100 645 78 645 45 c 7
 645 14 622 -10 590 -10 c 7
350 -10 m 7
 320 -10 295 16 295 45 c 7
 295 77 318 100 350 100 c 7
 383 100 405 78 405 45 c 7
 405 14 382 -10 350 -10 c 7
110 -10 m 7
 80 -10 55 16 55 45 c 7
 55 77 78 100 110 100 c 7
 143 100 165 78 165 45 c 7
 165 14 142 -10 110 -10 c 7
EndSplineSet
Validated: 1
LCarets2: 2 0 0
Ligature2: "'liga' standard ligatures-subtable" period period period
EndChar

StartChar: fraction
Encoding: 8260 8260 105
Width: 183
VWidth: 838
Flags: HMW
LayerCount: 2
Fore
SplineSet
-133 5 m 5
 259 650 l 5
 318 650 l 5
 -75 5 l 5
 -133 5 l 5
EndSplineSet
Validated: 1
EndChar

StartChar: bullet
Encoding: 8226 8226 106
Width: 340
VWidth: 838
Flags: HMW
LayerCount: 2
Fore
SplineSet
170 190 m 3
 110 190 60 242 60 300 c 3
 60 364 106 410 170 410 c 3
 236 410 280 366 280 300 c 3
 280 238 234 190 170 190 c 3
EndSplineSet
Validated: 1
EndChar

StartChar: dagger
Encoding: 8224 8224 107
Width: 374
VWidth: 838
Flags: HMW
LayerCount: 2
Fore
SplineSet
187 606 m 4
 203 606 217 589 217 568 c 6
 217 410 l 29
 297 410 l 6
 323 410 329 391 329 380 c 4
 329 369 323 350 297 350 c 4
 274 350 248 364 217 370 c 5
 217 200 l 6
 217 64 205 -68 199 -136 c 4
 197 -154 197 -165 187 -165 c 4
 176 -165 177 -149 175 -136 c 4
 169 -68 157 64 157 200 c 6
 157 370 l 5
 126 364 97 350 77 350 c 4
 51 350 45 370 45 380 c 4
 45 394 54 410 77 410 c 6
 157 410 l 29
 157 568 l 6
 157 589 171 606 187 606 c 4
EndSplineSet
Validated: 1
EndChar

StartChar: daggerdbl
Encoding: 8225 8225 108
Width: 374
VWidth: 838
Flags: HMW
LayerCount: 2
Back
SplineSet
187 606 m 4
 203 606 217 589 217 568 c 6
 217 410 l 29
 297 410 l 6
 323 410 329 391 329 380 c 4
 329 369 323 350 297 350 c 4
 274 350 248 364 217 370 c 5
 217 200 l 6
 217 64 205 -68 199 -136 c 4
 197 -154 197 -165 187 -165 c 4
 176 -165 177 -149 175 -136 c 4
 169 -68 157 64 157 200 c 6
 157 370 l 5
 126 364 97 350 77 350 c 4
 51 350 45 370 45 380 c 4
 45 394 54 410 77 410 c 6
 157 410 l 29
 157 568 l 6
 157 589 171 606 187 606 c 4
EndSplineSet
Fore
SplineSet
187 606 m 0
 203 606 217 589 217 568 c 2
 217 410 l 1
 297 410 l 2
 323 410 329 391 329 380 c 0
 329 369 323 350 297 350 c 0
 274 350 248 364 217 370 c 1
 217 280 l 1
 297 280 l 2
 323 280 329 261 329 250 c 0
 329 239 323 220 297 220 c 0
 274 220 248 234 217 240 c 1
 217 200 l 2
 217 64 205 -68 199 -136 c 0
 197 -154 197 -165 187 -165 c 0
 176 -165 177 -149 175 -136 c 0
 169 -68 157 64 157 200 c 2
 157 240 l 1
 126 234 97 220 77 220 c 0
 51 220 45 240 45 250 c 0
 45 264 54 280 77 280 c 2
 157 280 l 1
 157 370 l 1
 126 364 97 350 77 350 c 0
 51 350 45 370 45 380 c 0
 45 394 54 410 77 410 c 2
 157 410 l 1
 157 568 l 2
 157 589 171 606 187 606 c 0
EndSplineSet
Validated: 1
EndChar

StartChar: endash
Encoding: 8211 8211 109
Width: 630
VWidth: 838
Flags: HMW
LayerCount: 2
Back
SplineSet
65.3896484375 341.170898438 m 1
 65.3896484375 378.056640625 l 1
 409.104492188 378.056640625 l 1
 409.104492188 341.170898438 l 1
 65.3896484375 341.170898438 l 1
65.3896484375 206.19921875 m 1
 65.3896484375 243.0859375 l 1
 409.104492188 243.0859375 l 1
 409.104492188 206.19921875 l 1
 65.3896484375 206.19921875 l 1
633.778320312 102.24609375 m 0
 633.778320312 132.426757812 648.868164062 150.870117188 678.208984375 150.870117188 c 0
 727.670898438 150.870117188 728.508789062 94.7021484375 748.62890625 64.521484375 c 0
 760.366210938 46.916015625 777.971679688 34.341796875 808.150390625 34.341796875 c 0
 850.06640625 34.341796875 880.247070312 56.1376953125 901.206054688 80.4501953125 c 0
 923.83984375 107.276367188 939.768554688 147.516601562 939.768554688 194.462890625 c 0
 939.768554688 269.913085938 902.8828125 320.211914062 849.228515625 342.84765625 c 0
 830.786132812 350.391601562 810.666015625 354.583007812 788.030273438 354.583007812 c 0
 753.659179688 354.583007812 723.478515625 343.685546875 697.491210938 321.888671875 c 1
 684.916015625 323.565429688 l 1
 728.508789062 639.616210938 l 1
 995.098632812 639.616210938 l 1
 972.462890625 564.166015625 l 1
 757.012695312 564.166015625 l 1
 736.053710938 419.134765625 l 1
 760.366210938 427.518554688 778.809570312 432.548828125 808.989257812 432.548828125 c 0
 907.913085938 432.548828125 974.139648438 382.249023438 1003.48144531 311.829101562 c 0
 1013.54199219 286.6796875 1018.57226562 259.014648438 1018.57226562 228.833984375 c 0
 1018.57226562 156.73828125 989.23046875 101.407226562 951.505859375 63.6826171875 c 0
 913.780273438 26.796875 857.612304688 -3.3837890625 786.353515625 -3.3837890625 c 0
 720.96484375 -3.3837890625 669.826171875 20.08984375 645.514648438 60.330078125 c 0
 637.969726562 72.9052734375 633.778320312 87.15625 633.778320312 102.24609375 c 0
-162.635742188 183.564453125 m 1
 -430.901367188 183.564453125 l 1
 -437.608398438 197.81640625 l 1
 -99.7607421875 658.8984375 l 1
 -77.96484375 650.514648438 l 1
 -77.96484375 247.27734375 l 1
 0 247.27734375 l 1
 0 183.564453125 l 1
 -77.96484375 183.564453125 l 1
 -77.96484375 40.208984375 l 1
 -3.353515625 24.2822265625 l 1
 -3.353515625 5 l 1
 -263.236328125 5 l 1
 -263.236328125 24.2822265625 l 1
 -162.635742188 40.208984375 l 1
 -162.635742188 183.564453125 l 1
-166.827148438 492.0703125 m 1
 -170.180664062 492.0703125 l 1
 -343.715820312 250.630859375 l 1
 -342.877929688 247.27734375 l 1
 -166.827148438 247.27734375 l 1
 -166.827148438 492.0703125 l 1
EndSplineSet
Fore
SplineSet
65 230 m 5
 65 280 l 5
 565 280 l 5
 565 230 l 5
 65 230 l 5
EndSplineSet
Validated: 1
EndChar

StartChar: emdash
Encoding: 8212 8212 110
Width: 930
VWidth: 838
Flags: HMW
LayerCount: 2
Fore
SplineSet
65 230 m 5
 65 280 l 5
 865 280 l 5
 865 230 l 5
 65 230 l 5
EndSplineSet
Validated: 1
EndChar

StartChar: asterisk
Encoding: 42 42 111
Width: 437
VWidth: 838
Flags: HMW
LayerCount: 2
Back
SplineSet
352.098632812 395.4296875 m 0
 352.098632812 375.374023438 337.737304688 362.733398438 317.727539062 362.733398438 c 0
 298.569335938 362.733398438 286.997070312 374.129882812 276.649414062 384.950195312 c 0
 263.416015625 398.786132812 250.374023438 414.771484375 234.732421875 427.28515625 c 2
 212.936523438 444.051757812 l 1
 217.130859375 415.548828125 l 2
 219.924804688 396.546875 223.697265625 379.779296875 228.447265625 365.249023438 c 0
 233.198242188 350.717773438 235.573242188 337.864257812 235.573242188 326.686523438 c 0
 235.573242188 307.353515625 224.23828125 293.153320312 204.555664062 293.153320312 c 0
 183.672851562 293.153320312 172.698242188 308.713867188 172.698242188 330.040039062 c 0
 172.698242188 342.3359375 175.353515625 355.749023438 180.662109375 370.279296875 c 0
 185.971679688 384.810546875 189.744140625 400.1796875 191.98046875 416.38671875 c 2
 195.333984375 444.051757812 l 1
 171.860351562 426.447265625 l 1
 149.744140625 408.75390625 134.342773438 383.3515625 111.081054688 368.182617188 c 0
 104.654296875 363.991210938 97.2490234375 361.895507812 88.8662109375 361.895507812 c 0
 68.5849609375 361.895507812 54.494140625 374.831054688 54.494140625 394.588867188 c 0
 54.494140625 415.692382812 71.7041015625 422.4765625 89.28515625 427.704101562 c 0
 112.774414062 434.688476562 138.87890625 439.044921875 160.962890625 449.08203125 c 2
 185.2734375 459.979492188 l 1
 159.286132812 470.877929688 l 2
 129.720703125 482.97265625 87.666015625 484.084960938 64.1337890625 501.477539062 c 0
 57.7060546875 506.227539062 54.4931640625 513.633789062 54.4931640625 523.692382812 c 0
 54.4931640625 543.8828125 67.8408203125 557.2265625 88.865234375 557.2265625 c 0
 107.994140625 557.2265625 118.741210938 545.845703125 129.103515625 535.010742188 c 0
 142.912109375 520.57421875 155.192382812 504.192382812 172.696289062 491.836914062 c 2
 194.493164062 475.908203125 l 1
 191.140625 504.412109375 l 2
 188.904296875 522.854492188 185.131835938 538.084960938 179.822265625 550.100585938 c 0
 174.513671875 562.116210938 171.858398438 574.83203125 171.858398438 588.244140625 c 0
 171.858398438 611.474609375 182.643554688 626.80859375 203.715820312 626.80859375 c 0
 224.025390625 626.80859375 234.733398438 610.962890625 234.733398438 588.244140625 c 0
 234.733398438 573.676757812 229.541015625 561.959960938 225.931640625 550.100585938 c 0
 221.55078125 535.704101562 216.499023438 521.5625 215.452148438 502.735351562 c 2
 212.9375 475.908203125 l 1
 233.89453125 492.674804688 l 2
 252.451171875 507.32421875 264.919921875 522.58203125 279.584960938 537.944335938 c 0
 289.475585938 548.305664062 299.583984375 558.063476562 317.728515625 558.063476562 c 0
 339.099609375 558.063476562 352.099609375 544.541992188 352.099609375 524.529296875 c 0
 352.099609375 502.827148438 335.615234375 495.965820312 317.728515625 490.997070312 c 0
 294.76953125 484.620117188 269.296875 480.7109375 247.307617188 471.71484375 c 2
 221.318359375 460.81640625 l 1
 245.630859375 449.918945312 l 2
 269.015625 439.201171875 293.931640625 434.965820312 318.565429688 428.124023438 c 0
 336.061523438 423.264648438 352.098632812 416.325195312 352.098632812 395.4296875 c 0
EndSplineSet
Fore
SplineSet
198 276 m 5
 93 309 l 6
 73 315 55 321 55 345 c 4
 55 367 70 384 93 384 c 4
 114 384 123 372 134 361 c 6
 208 294 l 5
 184 418 l 7
 184 444 196 460 219 460 c 7
 241 460 253 443 253 418 c 4
 229 294 l 5
 303 362 l 6
 314 373 322 384 343 384 c 4
 366 384 382 368 382 346 c 4
 382 322 363 316 343 310 c 6
 238 276 l 5
 344 241 l 6
 363 234 382 228 382 205 c 4
 382 183 365 169 343 169 c 4
 321 169 313 180 299 193 c 6
 229 258 l 5
 254 130 l 4
 254 108 242 92 220 92 c 7
 197 92 185 110 185 133 c 4
 209 258 l 5
 138 192 l 6
 124 179 115 168 93 168 c 4
 71 168 55 181 55 203 c 4
 55 226 72 233 91 240 c 6
 198 276 l 5
EndSplineSet
Validated: 1
EndChar

StartChar: hyphen
Encoding: 45 45 112
Width: 390
VWidth: 838
Flags: HMW
LayerCount: 2
Fore
SplineSet
60 200 m 1
 60 260 l 5
 330 260 l 5
 330 200 l 1
 60 200 l 1
EndSplineSet
Validated: 1
EndChar

StartChar: slash
Encoding: 47 47 113
Width: 297
VWidth: 838
Flags: HMW
LayerCount: 2
Fore
SplineSet
35 -137 m 1
 204 690 l 1
 262 690 l 1
 93 -137 l 1
 35 -137 l 1
EndSplineSet
Validated: 1
EndChar

StartChar: parenright
Encoding: 41 41 114
Width: 270
VWidth: 838
Flags: HMW
LayerCount: 2
Fore
SplineSet
150 290 m 7
 150 458 98 624 30 725 c 1
 40 735 l 1
 142 651 230 474 230 290 c 7
 230 96 135 -73 40 -170 c 5
 30 -160 l 5
 94 -57 150 118 150 290 c 7
EndSplineSet
Validated: 1
EndChar

StartChar: parenleft
Encoding: 40 40 115
Width: 270
VWidth: 838
Flags: HMW
LayerCount: 2
Fore
SplineSet
120 290 m 7
 120 118 176 -57 240 -160 c 5
 230 -170 l 5
 135 -73 40 96 40 290 c 7
 40 474 128 651 230 735 c 1
 240 725 l 1
 172 624 120 458 120 290 c 7
EndSplineSet
Validated: 1
EndChar

StartChar: cent
Encoding: 162 162 116
Width: 458
VWidth: 838
Flags: HMW
LayerCount: 2
Back
SplineSet
269.619140625 457.69921875 m 5
 291.415039062 457.139648438 311.815429688 454.20703125 330.818359375 448.897460938 c 4
 349.8203125 443.588867188 366.16796875 436.462890625 379.860351562 427.51953125 c 4
 393.552734375 418.578125 404.310546875 408.239257812 412.134765625 396.501953125 c 4
 419.959960938 384.765625 423.872070312 372.190429688 423.872070312 358.776367188 c 4
 423.872070312 344.24609375 420.518554688 332.649414062 413.811523438 323.987304688 c 4
 407.104492188 315.325195312 397.604492188 310.993164062 385.30859375 310.993164062 c 4
 370.778320312 310.993164062 359.600585938 315.325195312 351.776367188 323.987304688 c 4
 343.952148438 332.649414062 338.643554688 345.922851562 335.849609375 363.806640625 c 4
 332.49609375 385.043945312 325.370117188 400.83203125 314.471679688 411.172851562 c 4
 303.573242188 421.51171875 288.623046875 427.798828125 269.62109375 430.034179688 c 5
 269.62109375 57.8154296875 l 5
 295.888671875 57.8154296875 320.060546875 62.845703125 342.135742188 72.9052734375 c 4
 364.211914062 82.9658203125 382.794921875 98.3349609375 397.884765625 119.013671875 c 6
 407.10546875 131.588867188 l 5
 423.034179688 123.205078125 l 5
 418.842773438 112.306640625 l 6
 405.98828125 78.7744140625 386.708007812 52.2265625 360.998046875 32.666015625 c 4
 335.2890625 13.10546875 304.830078125 1.6474609375 269.620117188 -1.7060546875 c 5
 269.620117188 -103.982421875 l 5
 234.41015625 -103.982421875 l 5
 234.41015625 -2.5439453125 l 5
 205.907226562 -0.8671875 179.778320312 5.69921875 156.025390625 17.1572265625 c 4
 132.274414062 28.61328125 112.013671875 44.123046875 95.2470703125 63.68359375 c 4
 78.48046875 83.2451171875 65.345703125 106.438476562 55.845703125 133.265625 c 4
 46.3447265625 160.092773438 41.59375 189.43359375 41.59375 221.291015625 c 4
 41.59375 253.146484375 46.2041015625 282.627929688 55.4267578125 309.733398438 c 4
 64.6484375 336.83984375 77.7822265625 360.591796875 94.8271484375 380.991210938 c 4
 111.874023438 401.390625 132.2734375 418.157226562 156.024414062 431.291015625 c 4
 179.77734375 444.42578125 205.90625 452.668945312 234.409179688 456.022460938 c 5
 234.409179688 566.681640625 l 5
 269.619140625 566.681640625 l 5
 269.619140625 457.69921875 l 5
127.103515625 238.057617188 m 4
 127.103515625 188.875 136.325195312 149.194335938 154.768554688 119.013671875 c 4
 173.2109375 88.833984375 199.7578125 69.8310546875 234.409179688 62.0068359375 c 5
 234.409179688 429.196289062 l 5
 219.877929688 426.40234375 206.185546875 419.8359375 193.33203125 409.497070312 c 4
 180.477539062 399.15625 169.16015625 385.744140625 159.37890625 369.255859375 c 4
 149.598632812 352.76953125 141.774414062 333.487304688 135.90625 311.411132812 c 4
 130.038085938 289.3359375 127.103515625 264.883789062 127.103515625 238.057617188 c 4
EndSplineSet
Fore
SplineSet
409 359 m 0
 409 332 397 311 371 311 c 0
 342 311 326 329 322 364 c 0
 319 397 299 400 270 401 c 1
 270 50 l 1
 326 51 367 77 392 112 c 2
 401 124 l 1
 418 116 l 1
 413 106 l 2
 390 46 342 0 270 -10 c 5
 270 -111 l 1
 235 -111 l 1
 235 -10 l 1
 115 -7 35 94 35 221 c 0
 35 351 116 446 235 457 c 1
 235 567 l 1
 270 567 l 1
 270 458 l 1
 337 454 409 418 409 359 c 0
235 400 m 1
 148 392 121 335 121 238 c 0
 121 145 157 64 235 50 c 1
 235 400 l 1
EndSplineSet
Validated: 1
EndChar

StartChar: sterling
Encoding: 163 163 117
Width: 563
VWidth: 838
Flags: HMW
LayerCount: 2
Fore
SplineSet
25 49 m 0
 25 96 67 122 116 122 c 0
 132 122 149 120 169 115 c 1
 181 165 191 217 200 275 c 1
 107 275 l 1
 107 312 l 1
 207 312 l 1
 226 410 l 2
 243 494 267 556 298 595 c 0
 329 634 368 655 416 655 c 0
 465 655 518 634 518 591 c 0
 518 563 496 543 469 543 c 0
 443 543 432 561 423 579 c 0
 417 593 411 594 394 594 c 0
 374 594 362 589 355 567 c 0
 338 507 328 447 315 366 c 2
 306 312 l 1
 457 312 l 1
 457 275 l 1
 299 275 l 1
 283 209 268 148 243 95 c 1
 278 79 317 71 359 71 c 0
 425 71 465 92 477 134 c 1
 506 134 l 1
 506 43 461 -10 371 -10 c 0
 324 -10 294 4 262 24 c 0
 250 31 234 42 218 54 c 1
 189 21 151 -10 98 -10 c 4
 57 -10 25 10 25 49 c 0
69 53 m 0
 69 37 80 27 97 27 c 0
 126 27 146 51 155 76 c 1
 143 82 133 85 116 85 c 0
 90 85 69 78 69 53 c 0
EndSplineSet
Validated: 1
EndChar

StartChar: currency
Encoding: 164 164 118
Width: 533
VWidth: 838
Flags: HMW
LayerCount: 2
Back
SplineSet
105.791015625 111.467773438 m 5
 65.5517578125 151.70703125 l 5
 121.719726562 207.037109375 l 5
 98.24609375 235.540039062 86.509765625 271.029296875 86.509765625 313.504882812 c 4
 86.509765625 353.744140625 98.24609375 388.955078125 121.719726562 419.133789062 c 5
 65.5517578125 473.626953125 l 5
 105.791015625 513.866210938 l 5
 161.12109375 457.698242188 l 5
 190.741210938 481.170898438 225.952148438 492.907226562 266.750976562 492.907226562 c 4
 305.313476562 492.907226562 340.802734375 481.450195312 373.21875 458.536132812 c 5
 427.709960938 513.866210938 l 5
 467.950195312 473.626953125 l 5
 411.78125 418.295898438 l 5
 435.254882812 388.67578125 446.9921875 353.744140625 446.9921875 313.504882812 c 4
 446.9921875 273.82421875 435.534179688 238.3359375 412.620117188 207.038085938 c 5
 467.950195312 151.708007812 l 5
 427.709960938 111.467773438 l 5
 372.380859375 167.635742188 l 5
 342.759765625 144.163085938 307.549804688 132.426757812 266.750976562 132.426757812 c 4
 226.510742188 132.426757812 191.30078125 144.163085938 161.12109375 167.635742188 c 5
 105.791015625 111.467773438 l 5
266.750976562 186.078125 m 4
 283.516601562 186.078125 299.166992188 189.431640625 313.697265625 196.138671875 c 4
 328.228515625 202.845703125 341.08203125 211.926757812 352.259765625 223.383789062 c 4
 363.4375 234.841796875 372.239257812 248.254882812 378.666992188 263.624023438 c 4
 385.094726562 278.993164062 388.30859375 295.340820312 388.30859375 312.666015625 c 4
 388.30859375 329.9921875 385.094726562 346.33984375 378.666992188 361.708984375 c 4
 372.239257812 377.078125 363.4375 390.491210938 352.259765625 401.94921875 c 4
 341.08203125 413.40625 328.228515625 422.487304688 313.697265625 429.194335938 c 4
 299.166992188 435.901367188 283.516601562 439.254882812 266.750976562 439.254882812 c 4
 249.984375 439.254882812 234.3359375 435.901367188 219.8046875 429.194335938 c 4
 205.2734375 422.487304688 192.418945312 413.40625 181.2421875 401.94921875 c 4
 170.064453125 390.491210938 161.26171875 377.217773438 154.834960938 362.127929688 c 4
 148.407226562 347.0390625 145.194335938 330.830078125 145.194335938 313.504882812 c 4
 145.194335938 296.1796875 148.407226562 279.83203125 154.834960938 264.462890625 c 4
 161.26171875 249.09375 170.064453125 235.540039062 181.2421875 223.802734375 c 4
 192.418945312 212.067382812 205.2734375 202.845703125 219.8046875 196.138671875 c 4
 234.3359375 189.431640625 249.984375 186.078125 266.750976562 186.078125 c 4
EndSplineSet
Fore
SplineSet
105 111 m 1
 65 152 l 1
 122 207 l 1
 98 236 87 271 87 313 c 3
 87 353 98 390 122 420 c 1
 65 473 l 1
 105 514 l 1
 161 458 l 1
 190 482 226 493 267 493 c 3
 305 493 340 482 373 459 c 1
 428 514 l 1
 468 473 l 1
 411 418 l 1
 435 389 447 353 447 313 c 3
 447 274 435 238 412 207 c 1
 468 152 l 1
 428 111 l 1
 372 167 l 1
 343 143 308 132 267 132 c 3
 227 132 191 143 161 167 c 1
 105 111 l 1
267 186 m 3
 337 186 389 243 389 313 c 3
 389 383 337 439 267 439 c 3
 197 439 145 382 145 313 c 3
 145 243 197 186 267 186 c 3
EndSplineSet
Validated: 1
EndChar

StartChar: yen
Encoding: 165 165 119
Width: 549
VWidth: 838
Flags: HMW
LayerCount: 2
Back
SplineSet
89.025390625 318.536132812 m 5
 213.09765625 318.537109375 l 5
 100.759765625 580.096679688 l 6
 96.2900390625 590.15625 92.09765625 598.260742188 88.185546875 604.407226562 c 4
 84.2734375 610.555664062 79.662109375 615.4453125 74.353515625 619.078125 c 4
 69.0439453125 622.7109375 62.896484375 625.365234375 55.91015625 627.041992188 c 4
 48.9248046875 628.71875 40.1220703125 630.116210938 29.50390625 631.233398438 c 5
 29.50390625 650.515625 l 5
 262.559570312 650.515625 l 5
 262.559570312 631.233398438 l 5
 241.322265625 627.321289062 226.091796875 622.850585938 216.870117188 617.8203125 c 4
 207.6484375 612.790039062 203.038085938 605.525390625 203.038085938 596.024414062 c 4
 203.038085938 588.19921875 205.552734375 578.418945312 210.583007812 566.682617188 c 6
 301.9609375 344.525390625 l 5
 305.313476562 344.525390625 l 5
 396.692382812 567.520507812 l 6
 400.045898438 576.463867188 401.72265625 584.567382812 401.72265625 591.833007812 c 4
 401.72265625 603.010742188 396.551757812 611.672851562 386.212890625 617.8203125 c 4
 375.874023438 623.967773438 358.12890625 628.439453125 332.979492188 631.233398438 c 5
 332.979492188 650.514648438 l 5
 519.088867188 650.514648438 l 5
 519.088867188 631.233398438 l 5
 505.674804688 628.439453125 494.498046875 625.504882812 485.5546875 622.430664062 c 4
 476.61328125 619.356445312 468.7890625 614.60546875 462.08203125 608.177734375 c 4
 455.375 601.750976562 448.947265625 592.948242188 442.80078125 581.770507812 c 4
 436.653320312 570.59375 429.946289062 556.0625 422.6796875 538.177734375 c 6
 332.140625 318.536132812 l 5
 450.345703125 318.536132812 l 5
 450.345703125 281.649414062 l 5
 317.05078125 281.649414062 l 5
 317.05078125 217.09765625 l 5
 450.345703125 217.09765625 l 5
 450.345703125 180.2109375 l 5
 317.05078125 180.2109375 l 5
 317.05078125 40.208984375 l 5
 391.662109375 24.2822265625 l 5
 391.662109375 5 l 5
 153.576171875 5 l 5
 153.576171875 24.2822265625 l 5
 229.025390625 40.208984375 l 5
 229.025390625 180.2109375 l 5
 89.025390625 180.2109375 l 5
 89.025390625 217.09765625 l 5
 229.025390625 217.09765625 l 5
 229.025390625 281.649414062 l 5
 89.025390625 281.649414062 l 5
 89.025390625 318.536132812 l 5
EndSplineSet
Fore
SplineSet
390 611 m 3
 390 622 368 627 333 631 c 1
 333 650 l 1
 519 650 l 1
 519 631 l 1
 494 626 478 622 462 608 c 0
 443 591 434 567 423 538 c 2
 332 318 l 1
 451 318 l 1
 451 282 l 1
 317 282 l 1
 317 217 l 1
 451 217 l 1
 451 180 l 1
 317 180 l 1
 317 35 l 1
 392 20 l 1
 392 0 l 1
 154 0 l 1
 154 20 l 1
 229 35 l 1
 229 180 l 1
 89 180 l 1
 89 217 l 1
 229 217 l 1
 229 282 l 1
 89 282 l 1
 89 318 l 1
 213 318 l 1
 101 580 l 2
 91 604 82 621 57 627 c 0
 50 629 41 630 30 631 c 1
 30 650 l 1
 263 650 l 1
 263 631 l 1
 242 627 225 623 217 618 c 0
 207 613 203 605 203 596 c 0
 203 589 206 577 211 566 c 2
 291 371 l 1
 295 371 l 1
 386 593 l 2
 389 602 390 604 390 611 c 3
EndSplineSet
Validated: 1
EndChar

StartChar: section
Encoding: 167 167 120
Width: 456
VWidth: 0
Flags: HMW
LayerCount: 2
Back
SplineSet
240.762695312 700.814453125 m 4
 263.119140625 700.814453125 283.798828125 698.71875 302.80078125 694.52734375 c 4
 321.8046875 690.334960938 338.291015625 684.466796875 352.264648438 676.921875 c 4
 366.236328125 669.376953125 376.994140625 660.294921875 384.540039062 649.676757812 c 4
 392.084960938 639.056640625 395.857421875 627.599609375 395.857421875 615.303710938 c 4
 395.857421875 602.44921875 392.084960938 591.831054688 384.540039062 583.447265625 c 4
 376.994140625 575.064453125 366.794921875 570.872070312 353.940429688 570.872070312 c 4
 341.0859375 570.872070312 331.724609375 575.483398438 325.856445312 584.705078125 c 4
 319.98828125 593.926757812 313.700195312 606.919921875 306.994140625 623.6875 c 4
 303.08203125 633.1875 299.029296875 641.15234375 294.837890625 647.580078125 c 4
 290.647460938 654.006835938 285.755859375 659.176757812 280.16796875 663.08984375 c 4
 274.578125 667.001953125 267.87109375 669.795898438 260.047851562 671.47265625 c 4
 252.223632812 673.149414062 243.001953125 673.987304688 232.381835938 673.987304688 c 4
 198.290039062 673.987304688 171.8828125 666.442382812 153.16015625 651.353515625 c 4
 134.438476562 636.262695312 125.076171875 614.74609375 125.076171875 586.801757812 c 4
 125.076171875 562.768554688 131.922851562 543.208007812 145.615234375 528.119140625 c 4
 159.307617188 513.028320312 176.353515625 500.034179688 196.752929688 489.135742188 c 4
 217.151367188 478.237304688 239.227539062 468.038085938 262.98046875 458.537109375 c 4
 286.732421875 449.036132812 308.80859375 437.71875 329.20703125 424.583984375 c 4
 349.606445312 411.450195312 366.65234375 395.243164062 380.344726562 375.9609375 c 4
 394.037109375 356.6796875 400.883789062 331.94921875 400.883789062 301.768554688 c 4
 400.883789062 270.471679688 393.478515625 242.806640625 378.66796875 218.774414062 c 4
 363.857421875 194.741210938 343.318359375 176.01953125 317.05078125 162.60546875 c 5
 339.40625 148.633789062 358.268554688 131.30859375 373.637695312 110.62890625 c 4
 389.006835938 89.9501953125 396.692382812 62.564453125 396.692382812 28.4716796875 c 4
 396.692382812 -20.15234375 380.344726562 -58.2958984375 347.649414062 -85.9609375 c 4
 314.955078125 -113.625 269.82421875 -127.458007812 212.259765625 -127.458007812 c 4
 189.345703125 -127.458007812 168.247070312 -125.221679688 148.965820312 -120.750976562 c 4
 129.68359375 -116.280273438 113.057617188 -109.852539062 99.083984375 -101.469726562 c 4
 85.1123046875 -93.0859375 74.2138671875 -83.166015625 66.3896484375 -71.708984375 c 4
 58.5654296875 -60.2509765625 54.6533203125 -47.81640625 54.6533203125 -34.40234375 c 4
 54.6533203125 -20.990234375 58.42578125 -10.091796875 65.970703125 -1.7080078125 c 4
 73.515625 6.6748046875 83.71484375 10.8671875 96.5693359375 10.8671875 c 4
 108.865234375 10.8671875 117.947265625 6.53515625 123.815429688 -2.1279296875 c 4
 129.68359375 -10.7900390625 135.971679688 -24.0625 142.677734375 -41.947265625 c 4
 146.03125 -50.330078125 149.6640625 -58.154296875 153.576171875 -65.4208984375 c 4
 157.48828125 -72.685546875 162.377929688 -78.9736328125 168.247070312 -84.283203125 c 4
 174.115234375 -89.5927734375 181.66015625 -93.6435546875 190.881835938 -96.4375 c 4
 200.103515625 -99.232421875 211.700195312 -100.62890625 225.671875 -100.62890625 c 4
 259.206054688 -100.62890625 285.333984375 -92.38671875 304.056640625 -75.8994140625 c 4
 322.778320312 -59.4111328125 332.140625 -36.63671875 332.140625 -7.57421875 c 4
 332.140625 18.1357421875 325.293945312 38.953125 311.6015625 54.880859375 c 4
 297.909179688 70.8095703125 280.72265625 84.501953125 260.043945312 95.9599609375 c 4
 239.365234375 107.416992188 217.149414062 117.896484375 193.396484375 127.397460938 c 4
 169.64453125 136.897460938 147.428710938 147.936523438 126.75 160.51171875 c 4
 106.071289062 173.0859375 88.884765625 188.455078125 75.1923828125 206.619140625 c 4
 61.5 224.783203125 54.6533203125 248.397460938 54.6533203125 277.458984375 c 4
 54.6533203125 309.875 63.875 337.819335938 82.318359375 361.291992188 c 4
 100.760742188 384.765625 126.470703125 402.090820312 159.444335938 413.26953125 c 5
 146.03125 420.534179688 133.177734375 428.499023438 120.880859375 437.161132812 c 4
 108.5859375 445.823242188 97.8271484375 455.744140625 88.60546875 466.920898438 c 4
 79.3837890625 478.098632812 72.1181640625 490.953125 66.80859375 505.483398438 c 4
 61.5 520.013671875 58.8447265625 536.501953125 58.8447265625 554.944335938 c 4
 58.8447265625 600.213867188 74.9140625 635.84375 107.048828125 661.833007812 c 4
 139.184570312 687.8203125 183.755859375 700.814453125 240.762695312 700.814453125 c 4
336.333984375 267.397460938 m 4
 336.333984375 284.165039062 332.420898438 298.696289062 324.59765625 310.991210938 c 4
 316.7734375 323.288085938 306.154296875 334.46484375 292.740234375 344.525390625 c 4
 279.328125 354.583984375 264.09765625 363.666992188 247.051757812 371.770507812 c 4
 230.005859375 379.875 212.26171875 388.118164062 193.817382812 396.500976562 c 5
 172.020507812 390.354492188 154.416992188 379.315429688 141.002929688 363.38671875 c 4
 127.58984375 347.458984375 120.8828125 328.875 120.8828125 307.637695312 c 4
 120.8828125 289.194335938 125.772460938 273.825195312 135.553710938 261.530273438 c 4
 145.333984375 249.233398438 158.049804688 238.475585938 173.698242188 229.25390625 c 4
 189.34765625 220.033203125 206.8125 211.7890625 226.09375 204.5234375 c 4
 245.375976562 197.2578125 264.517578125 189.154296875 283.520507812 180.2109375 c 5
 299.727539062 189.154296875 312.58203125 201.169921875 322.08203125 216.259765625 c 4
 331.583007812 231.348632812 336.333984375 248.39453125 336.333984375 267.397460938 c 4
EndSplineSet
Fore
SplineSet
59 555 m 7
 59 654 137 701 241 701 c 7
 302 701 360 685 385 650 c 4
 392 639 396 627 396 615 c 4
 396 590 379 570 353 570 c 7
 296 570 347 648 233 648 c 7
 170 648 125 624 125 587 c 7
 125 562 133 544 146 528 c 4
 190 478 272 462 330 425 c 4
 368 400 401 365 401 302 c 7
 401 234 365 187 317 162 c 5
 340 148 357 131 373 110 c 4
 389 89 397 63 397 29 c 7
 397 -74 320 -127 212 -127 c 7
 148 -127 92 -110 66 -73 c 4
 59 -62 55 -47 55 -34 c 4
 55 -8 70 11 96 11 c 4
 108 11 117 6 123 -2 c 4
 152 -44 128 -75 225 -75 c 7
 288 -75 332 -47 332 -7 c 7
 332 19 324 40 311 56 c 4
 267 107 187 125 127 161 c 4
 89 185 55 217 55 278 c 7
 55 351 101 393 159 413 c 5
 108 441 59 476 59 555 c 7
278 191 m 5
 304 205 326 233 326 270 c 7
 326 303 307 323 286 339 c 4
 261 359 228 371 197 385 c 5
 163 375 132 348 132 306 c 7
 132 269 155 250 180 236 c 4
 209 218 245 207 278 191 c 5
EndSplineSet
Validated: 1
EndChar

StartChar: brokenbar
Encoding: 166 166 121
Width: 220
VWidth: 838
Flags: HMW
LayerCount: 2
Fore
SplineSet
80 373 m 5
 80 700 l 1
 140 700 l 1
 140 373 l 5
 80 373 l 5
80 -75 m 1
 80 250 l 1
 140 250 l 1
 140 -75 l 1
 80 -75 l 1
EndSplineSet
Validated: 1
EndChar

StartChar: uni00AD
Encoding: 173 173 122
Width: 390
VWidth: 838
Flags: HMW
LayerCount: 2
Fore
SplineSet
60 181 m 1
 60 251 l 1
 330 251 l 1
 330 181 l 1
 60 181 l 1
EndSplineSet
Validated: 1
EndChar

StartChar: logicalnot
Encoding: 172 172 123
Width: 475
VWidth: 838
Flags: HMW
LayerCount: 2
Fore
SplineSet
371 226 m 5
 70 226 l 5
 70 263 l 5
 415 263 l 5
 415 128 l 5
 371 128 l 5
 371 226 l 5
EndSplineSet
Validated: 1
EndChar

StartChar: paragraph
Encoding: 182 182 124
Width: 458
VWidth: 838
Flags: HMW
LayerCount: 2
Back
SplineSet
245.46875 -85.5400390625 m 5
 245.46875 290.029296875 l 5
 198.522460938 290.029296875 l 6
 171.696289062 290.029296875 147.6640625 294.78125 126.426757812 304.28125 c 4
 105.188476562 313.782226562 87.025390625 326.776367188 71.9345703125 343.264648438 c 4
 56.8447265625 359.751953125 45.248046875 378.75390625 37.1435546875 400.271484375 c 4
 29.0400390625 421.7890625 24.98828125 444.842773438 24.98828125 469.43359375 c 4
 24.98828125 496.819335938 29.458984375 521.690429688 38.4013671875 544.045898438 c 4
 47.34375 566.40234375 60.1982421875 585.404296875 76.96484375 601.053710938 c 4
 93.73046875 616.702148438 114.129882812 628.858398438 138.163085938 637.520507812 c 4
 162.1953125 646.182617188 189.30078125 650.514648438 219.48046875 650.514648438 c 6
 438.28515625 650.514648438 l 5
 438.28515625 629.556640625 l 5
 372.895507812 615.3046875 l 5
 372.895507812 -85.5400390625 l 5
 334.333007812 -85.5400390625 l 5
 334.333007812 616.981445312 l 5
 284.032226562 616.981445312 l 5
 284.032226562 -85.5400390625 l 5
 245.46875 -85.5400390625 l 5
EndSplineSet
Fore
SplineSet
233 -86 m 1
 233 290 l 1
 199 290 l 2
 93 290 25 365 25 469 c 3
 25 585 103 650 219 650 c 2
 438 650 l 1
 438 620 l 1
 386 605 l 1
 386 -86 l 1
 334 -86 l 1
 334 605 l 1
 284 605 l 1
 284 -86 l 1
 233 -86 l 1
EndSplineSet
Validated: 1
EndChar

StartChar: cedilla
Encoding: 184 184 125
Width: 192
VWidth: 838
Flags: HMW
LayerCount: 2
Fore
SplineSet
184 -126 m 0
 184 -182 133 -210 73 -210 c 0
 47 -210 22 -201 8 -190 c 1
 20 -166 l 1
 36 -175 45 -179 67 -179 c 0
 97 -179 122 -165 122 -136 c 0
 122 -111 109 -99 82 -99 c 0
 68 -99 52 -103 38 -107 c 1
 31 -99 l 1
 82 19 l 1
 113 19 l 1
 88 -44 l 1
 143 -44 184 -74 184 -126 c 0
EndSplineSet
Validated: 1
EndChar

StartChar: guillemotleft
Encoding: 171 171 126
Width: 367
VWidth: 838
Flags: HMW
LayerCount: 2
Fore
SplineSet
166 49 m 1
 50 202 l 1
 50 219 l 1
 164 371 l 1
 175 367 l 1
 119 212 l 1
 176 56 l 1
 166 49 l 1
297 49 m 1
 181 202 l 1
 181 219 l 1
 296 371 l 1
 305 367 l 1
 250 212 l 1
 307 56 l 1
 297 49 l 1
EndSplineSet
Validated: 1
EndChar

StartChar: exclamdown
Encoding: 161 161 127
Width: 180
VWidth: 838
Flags: HMW
LayerCount: 2
Fore
SplineSet
74 540 m 5
 104 540 l 5
 110 441 120 340 130 250 c 4
 138 181 150 113 150 56 c 4
 150 18 130 -10 90 -10 c 4
 51 -10 30 18 30 56 c 4
 30 114 41 183 49 254 c 4
 59 343 68 442 74 540 c 5
89 700 m 3
 121 700 144 676 144 645 c 3
 144 612 122 590 89 590 c 3
 57 590 34 613 34 645 c 3
 34 674 59 700 89 700 c 3
EndSplineSet
Validated: 1
EndChar

StartChar: mu
Encoding: 181 181 128
Width: 495
VWidth: 838
Flags: HMW
LayerCount: 2
Back
SplineSet
335 35 m 5
 296 0 256 -10 188 -10 c 4
 98 -10 80 50 80 142 c 6
 80 410 l 5
 20 430 l 5
 20 450 l 5
 160 450 l 5
 160 162 l 6
 160 91 162 35 230 35 c 4
 278 35 310 55 335 85 c 5
 335 410 l 5
 275 430 l 5
 275 450 l 5
 415 450 l 5
 415 50 l 5
 475 30 l 5
 475 20 l 5
 355 -10 l 5
 345 -10 l 5
 345 30 l 5
 335 35 l 5
EndSplineSet
Fore
SplineSet
335 35 m 1
 296 0 256 -10 188 -10 c 3
 169 -10 153 -7 140 -2 c 1
 140 -78 l 1
 80 -78 l 1
 80 410 l 1
 20 430 l 1
 20 450 l 1
 160 450 l 1
 160 162 l 2
 160 91 162 35 230 35 c 3
 278 35 310 55 335 85 c 1
 335 410 l 1
 275 430 l 1
 275 450 l 1
 415 450 l 1
 415 50 l 1
 475 30 l 1
 475 20 l 1
 355 -10 l 1
 345 -10 l 1
 345 30 l 1
 335 35 l 1
EndSplineSet
Validated: 1
EndChar

StartChar: guillemotright
Encoding: 187 187 129
Width: 367
VWidth: 838
Flags: HMW
LayerCount: 2
Fore
SplineSet
190 56 m 5
 247 212 l 5
 192 367 l 5
 202 371 l 5
 317 219 l 5
 317 202 l 5
 201 49 l 5
 190 56 l 5
60 56 m 5
 117 212 l 5
 61 367 l 5
 71 371 l 5
 186 219 l 5
 186 202 l 5
 69 49 l 5
 60 56 l 5
EndSplineSet
Validated: 1
EndChar

StartChar: questiondown
Encoding: 191 191 130
Width: 433
VWidth: 838
Flags: HMW
LayerCount: 2
Fore
SplineSet
108 115 m 7
 108 85 140 40 215 40 c 7
 291 40 303 110 303 175 c 7
 303 222 282 261 242 298 c 4
 177 357 172 421 172 464 c 6
 172 510 l 29
 212 510 l 29
 212 466 l 6
 212 401 244 370 288 338 c 4
 335 304 393 240 393 161 c 7
 393 70 327 -10 225 -10 c 7
 107 -10 40 77 40 157 c 7
 40 192 65 200 81 200 c 7
 100 200 120 188 120 165 c 7
 120 137 108 144 108 115 c 7
192 700 m 7
 224 700 247 676 247 645 c 7
 247 612 225 590 192 590 c 7
 160 590 137 613 137 645 c 7
 137 674 162 700 192 700 c 7
EndSplineSet
Validated: 1
EndChar

StartChar: registered
Encoding: 174 174 131
Width: 576
VWidth: 838
Flags: HMW
LayerCount: 2
Back
SplineSet
190.139648438 560.813476562 m 1
 289.0625 560.813476562 l 2
 317.565429688 560.813476562 340.620117188 554.666992188 358.224609375 542.370117188 c 0
 375.830078125 530.075195312 384.631835938 512.19140625 384.631835938 488.717773438 c 0
 384.631835938 471.391601562 379.461914062 457.418945312 369.123046875 446.80078125 c 0
 358.784179688 436.180664062 344.391601562 428.63671875 325.94921875 424.165039062 c 1
 382.956054688 319.374023438 l 1
 408.104492188 312.666992188 l 1
 408.104492188 302.607421875 l 1
 336.009765625 302.607421875 l 1
 276.48828125 419.973632812 l 1
 257.206054688 419.973632812 l 1
 257.206054688 319.374023438 l 1
 287.385742188 312.666992188 l 1
 287.385742188 302.607421875 l 1
 190.139648438 302.607421875 l 1
 190.139648438 312.666992188 l 1
 211.936523438 319.374023438 l 1
 211.936523438 543.208007812 l 1
 190.139648438 549.915039062 l 1
 190.139648438 560.813476562 l 1
257.206054688 437.579101562 m 1
 279.002929688 437.579101562 297.306640625 441.4921875 312.116210938 449.31640625 c 0
 326.926757812 457.139648438 334.333007812 470.83203125 334.333007812 490.393554688 c 0
 334.333007812 507.719726562 328.463867188 520.853515625 316.727539062 529.795898438 c 0
 304.990234375 538.73828125 285.150390625 543.208984375 257.206054688 543.208984375 c 1
 257.206054688 437.579101562 l 1
EndSplineSet
Fore
SplineSet
284 410 m 5
 247 410 l 5
 247 312 l 5
 277 306 l 5
 277 298 l 5
 184 298 l 5
 184 306 l 5
 212 312 l 5
 212 544 l 5
 184 550 l 5
 184 558 l 5
 284 558 l 6
 324 558 355 543 368 516 c 4
 372 507 375 497 375 485 c 7
 375 448 355 424 323 416 c 5
 386 312 l 5
 416 306 l 5
 416 298 l 5
 350 298 l 5
 284 410 l 5
269 432 m 6
 311 432 335 448 335 488 c 7
 335 528 314 538 274 538 c 6
 247 538 l 5
 247 432 l 5
 269 432 l 6
55 428 m 3
 55 561 155 659 288 659 c 3
 421 659 521 560 521 428 c 3
 521 296 420 195 288 195 c 3
 156 195 55 296 55 428 c 3
86 428 m 3
 86 311 171 221 288 221 c 3
 405 221 490 311 490 428 c 3
 490 545 405 633 288 633 c 3
 171 633 86 545 86 428 c 3
EndSplineSet
Validated: 1
EndChar

StartChar: copyright
Encoding: 169 169 132
Width: 755
VWidth: 0
Flags: HMW
LayerCount: 2
Back
SplineSet
191.654296875 327.7578125 m 0
 191.654296875 356.259765625 196.262695312 382.393554688 205.484375 406.145507812 c 0
 214.706054688 429.8984375 227.420898438 450.296875 243.62890625 467.342773438 c 0
 259.8359375 484.388671875 279.118164062 497.801757812 301.473632812 507.58203125 c 0
 323.829101562 517.36328125 348.140625 522.25390625 374.408203125 522.25390625 c 0
 412.970703125 522.25390625 447.342773438 511.076171875 477.522460938 488.719726562 c 1
 480.875976562 488.719726562 l 1
 500.99609375 520.577148438 l 1
 512.732421875 520.577148438 l 1
 512.732421875 400.6953125 l 1
 494.2890625 400.6953125 l 1
 491.495117188 410.196289062 488.700195312 418.020507812 485.90625 424.166992188 c 0
 483.112304688 430.315429688 479.759765625 436.462890625 475.846679688 442.610351562 c 0
 465.227539062 460.494140625 452.79296875 473.348632812 438.541015625 481.171875 c 0
 424.2890625 488.997070312 407.3828125 492.909179688 387.822265625 492.909179688 c 0
 349.258789062 492.909179688 320.196289062 479.076171875 300.635742188 451.412109375 c 0
 281.075195312 423.747070312 271.294921875 384.205078125 271.294921875 332.788085938 c 0
 271.294921875 280.252929688 281.21484375 239.733398438 301.0546875 211.23046875 c 0
 320.895507812 182.7265625 349.258789062 168.474609375 386.145507812 168.474609375 c 0
 421.915039062 168.474609375 450.138671875 183.286132812 470.817382812 212.907226562 c 0
 476.407226562 220.731445312 481.296875 229.953125 485.48828125 240.571289062 c 0
 489.6796875 251.19140625 493.173828125 262.927734375 495.967773438 275.782226562 c 1
 512.734375 275.782226562 l 1
 512.734375 140.810546875 l 1
 500.998046875 140.810546875 l 1
 479.201171875 179.373046875 l 1
 462.993164062 165.959960938 446.645507812 156.040039062 430.158203125 149.61328125 c 0
 413.671875 143.185546875 394.80859375 139.97265625 373.571289062 139.97265625 c 0
 346.744140625 139.97265625 322.29296875 144.583007812 300.216796875 153.8046875 c 0
 278.141601562 163.025390625 259 175.880859375 242.791992188 192.368164062 c 0
 226.584960938 208.854492188 214.009765625 228.555664062 205.068359375 251.469726562 c 0
 196.125 274.383789062 191.654296875 299.813476562 191.654296875 327.7578125 c 0
EndSplineSet
Fore
SplineSet
184 324 m 3
 184 440 254 526 369 526 c 3
 412 526 449 512 477 495 c 1
 479 495 l 1
 504 520 l 1
 513 520 l 1
 513 405 l 1
 498 405 l 1
 479 461 448 496 377 496 c 3
 283 496 247 428 247 328 c 3
 247 228 284 157 377 157 c 3
 451 157 487 197 499 261 c 1
 513 261 l 1
 513 130 l 1
 501 130 l 1
 477 153 l 1
 445 130 416 124 367 124 c 3
 253 124 184 209 184 324 c 3
45 328 m 3
 45 517 188 659 377 659 c 3
 567 659 710 517 710 328 c 3
 710 139 566 -3 377 -3 c 3
 187 -3 45 139 45 328 c 3
88 328 m 3
 88 162 211 34 377 34 c 3
 543 34 666 162 666 328 c 3
 666 494 543 621 377 621 c 3
 211 621 88 494 88 328 c 3
EndSplineSet
Validated: 1
EndChar

StartChar: ampersand
Encoding: 38 38 133
Width: 662
VWidth: 838
Flags: HMW
LayerCount: 2
Fore
SplineSet
217 -10 m 3
 104 -10 35 52 35 156 c 3
 35 251 82 326 175 390 c 1
 144 430 130 449 130 514 c 3
 130 601 195 660 283 660 c 3
 348 660 403 625 403 560 c 3
 403 482 340 435 278 391 c 1
 425 210 l 1
 450 252 471 301 471 333 c 3
 471 358 449 364 415 370 c 1
 415 400 l 1
 608 400 l 1
 608 370 l 1
 554 365 547 368 536 321 c 0
 523 265 499 203 470 154 c 1
 560 42 l 1
 632 20 l 1
 632 0 l 1
 486 0 l 1
 419 84 l 1
 372 33 310 -10 217 -10 c 3
122 193 m 3
 122 106 154 65 242 65 c 3
 307 65 340 105 373 140 c 1
 210 344 l 1
 165 310 122 267 122 193 c 3
265 610 m 3
 229 610 188 583 188 545 c 3
 188 512 218 465 243 434 c 1
 301 473 346 515 346 553 c 3
 346 586 317 610 265 610 c 3
EndSplineSet
Validated: 1
EndChar

StartChar: f_f
Encoding: 64256 64256 134
Width: 667
VWidth: 838
Flags: HMW
LayerCount: 2
Back
SplineSet
382 589 m 3
 382 564 366 548 341 548 c 3
 281 548 321 620 259 620 c 3
 180 620 180 540 180 455 c 2
 180 450 l 1
 300 450 l 1
 300 410 l 1
 180 410 l 1
 180 30 l 5
 240 20 l 5
 240 0 l 5
 40 0 l 5
 40 20 l 5
 100 30 l 5
 100 410 l 1
 20 410 l 1
 35 450 l 1
 100 450 l 1
 100 503 l 2
 100 569 133 606 176 633 c 0
 202 649 236 660 275 660 c 3
 327 660 382 636 382 589 c 3
642 629 m 3
 642 604 626 588 601 588 c 3
 541 588 581 660 519 660 c 3
 440 660 440 580 440 495 c 2
 440 450 l 1
 560 450 l 1
 560 410 l 1
 440 410 l 1
 440 30 l 5
 500 20 l 5
 500 0 l 5
 300 0 l 5
 300 20 l 5
 360 30 l 5
 360 410 l 1
 280 410 l 1
 295 450 l 1
 360 450 l 1
 360 543 l 2
 360 609 393 646 436 673 c 0
 462 689 496 700 535 700 c 3
 587 700 642 676 642 629 c 3
EndSplineSet
Fore
SplineSet
642 629 m 0
 642 604 626 588 601 588 c 0
 541 588 581 660 519 660 c 0
 440 660 440 580 440 495 c 2
 440 450 l 1
 560 450 l 1
 560 410 l 1
 440 410 l 1
 440 40 l 5
 500 30 l 5
 500 0 l 1
 300 0 l 1
 300 30 l 5
 360 40 l 5
 360 410 l 1
 180 410 l 1
 180 40 l 5
 240 30 l 5
 240 0 l 1
 40 0 l 1
 40 30 l 5
 100 40 l 5
 100 410 l 1
 20 410 l 1
 35 450 l 1
 100 450 l 1
 100 503 l 2
 100 569 133 606 176 633 c 0
 202 649 236 660 275 660 c 0
 311 660 359 649 384 626 c 1
 397 645 416 660 436 673 c 0
 462 689 496 700 535 700 c 0
 587 700 642 676 642 629 c 0
360 450 m 1
 360 548 l 1
 301 548 342 620 259 620 c 0
 180 620 180 540 180 455 c 2
 180 450 l 1
 360 450 l 1
EndSplineSet
Validated: 1
LCarets2: 1 282
Ligature2: "'liga' standard ligatures-subtable" f f
EndChar

StartChar: f_i
Encoding: 64257 64257 135
Width: 520
VWidth: 838
Flags: HMW
LayerCount: 2
Back
SplineSet
382 629 m 3
 382 604 366 588 341 588 c 3
 281 588 321 660 259 660 c 3
 180 660 180 580 180 495 c 2
 180 450 l 1
 300 450 l 1
 300 410 l 1
 180 410 l 1
 180 30 l 5
 240 20 l 5
 240 0 l 5
 40 0 l 5
 40 20 l 5
 100 30 l 5
 100 410 l 1
 20 410 l 1
 35 450 l 1
 100 450 l 1
 100 543 l 2
 100 609 133 646 176 673 c 0
 202 689 236 700 275 700 c 3
 327 700 382 676 382 629 c 3
430 460 m 1
 440 460 l 1
 440 30 l 5
 500 20 l 5
 500 0 l 5
 300 0 l 5
 300 20 l 5
 360 30 l 5
 360 390 l 1
 300 410 l 1
 300 420 l 1
 380 435 400 445 430 460 c 1
400 549 m 3
 370 549 345 575 345 604 c 3
 345 636 368 659 400 659 c 3
 433 659 455 637 455 604 c 3
 455 573 432 549 400 549 c 3
EndSplineSet
Fore
SplineSet
430 490 m 1
 440 490 l 1
 440 40 l 1
 500 30 l 1
 500 0 l 1
 300 0 l 1
 300 30 l 1
 360 40 l 1
 360 390 l 1
 300 410 l 1
 180 410 l 1
 180 40 l 1
 240 30 l 1
 240 0 l 1
 40 0 l 1
 40 30 l 1
 100 40 l 1
 100 410 l 1
 20 410 l 1
 35 450 l 1
 100 450 l 1
 100 543 l 2
 100 609 133 646 176 673 c 0
 202 689 237 700 270 700 c 3
 354 700 440 676 440 629 c 3
 440 604 424 588 399 588 c 3
 339 588 373 660 270 660 c 3
 196 660 180 627 180 495 c 2
 180 450 l 1
 300 450 l 1
 380 465 400 475 430 490 c 1
EndSplineSet
Validated: 1
LCarets2: 1 270
Ligature2: "'liga' standard ligatures-subtable" f i
EndChar

StartChar: f_f_i
Encoding: 64259 64259 136
Width: 780
VWidth: 838
Flags: HMW
LayerCount: 2
Fore
SplineSet
690 490 m 1
 700 490 l 1
 700 40 l 1
 760 30 l 1
 760 0 l 1
 560 0 l 1
 560 30 l 1
 620 40 l 1
 620 390 l 1
 560 410 l 1
 440 410 l 1
 440 40 l 1
 500 30 l 1
 500 0 l 1
 300 0 l 1
 300 30 l 1
 360 40 l 1
 360 410 l 1
 180 410 l 1
 180 40 l 1
 240 30 l 1
 240 0 l 1
 40 0 l 1
 40 30 l 1
 100 40 l 1
 100 410 l 1
 20 410 l 1
 35 450 l 1
 100 450 l 1
 100 503 l 2
 100 569 133 606 176 633 c 0
 202 649 236 660 275 660 c 0
 311 660 359 649 384 626 c 1
 397 645 416 660 436 673 c 0
 462 689 497 700 530 700 c 0
 614 700 700 676 700 629 c 3
 700 604 684 588 659 588 c 3
 599 588 633 660 530 660 c 0
 456 660 440 627 440 495 c 2
 440 450 l 1
 560 450 l 1
 640 465 660 475 690 490 c 1
360 450 m 1
 360 548 l 1
 301 548 342 620 259 620 c 0
 180 620 180 540 180 455 c 2
 180 450 l 1
 360 450 l 1
EndSplineSet
Validated: 1
LCarets2: 2 270 530
Ligature2: "'liga' standard ligatures-subtable" f f i
EndChar

StartChar: f_l
Encoding: 64258 64258 137
Width: 520
VWidth: 838
Flags: HMW
LayerCount: 2
Back
SplineSet
430 490 m 1
 440 490 l 1
 440 30 l 5
 500 20 l 5
 500 0 l 5
 300 0 l 5
 300 20 l 5
 360 30 l 5
 360 390 l 1
 300 410 l 1
 180 410 l 1
 180 30 l 5
 240 20 l 5
 240 0 l 5
 40 0 l 5
 40 20 l 5
 100 30 l 5
 100 410 l 1
 20 410 l 1
 35 450 l 1
 100 450 l 1
 100 543 l 2
 100 609 133 646 176 673 c 0
 202 689 237 700 270 700 c 3
 354.053710938 700 441 676 441 629 c 0
 441 604 425 588 400 588 c 0
 340 588 373.083007812 660 270 660 c 3
 195.993164062 660 180 627 180 495 c 2
 180 450 l 1
 300 450 l 1
 380 465 400 475 430 490 c 1
EndSplineSet
Fore
SplineSet
300 410 m 1
 180 410 l 1
 180 40 l 1
 240 30 l 1
 240 0 l 1
 40 0 l 1
 40 30 l 1
 100 40 l 1
 100 410 l 1
 20 410 l 1
 35 450 l 1
 100 450 l 1
 100 543 l 2
 100 609 133 646 176 673 c 0
 202 689 237 700 270 700 c 0
 313 700 356 694 388 682 c 1
 404 688 416 693 430 700 c 1
 440 700 l 1
 440 629 l 1
 440 40 l 1
 500 30 l 1
 500 0 l 1
 300 0 l 1
 300 30 l 1
 360 40 l 1
 360 610 l 1
 346 631 335 660 270 660 c 0
 196 660 180 627 180 495 c 2
 180 450 l 1
 300 450 l 1
 300 410 l 1
EndSplineSet
Validated: 1
LCarets2: 1 260
Ligature2: "'liga' standard ligatures-subtable" f l
EndChar

StartChar: f_f_l
Encoding: 64260 64260 138
Width: 780
VWidth: 838
Flags: HMW
LayerCount: 2
Fore
SplineSet
560 410 m 1
 440 410 l 1
 440 40 l 1
 500 30 l 1
 500 0 l 1
 300 0 l 1
 300 30 l 1
 360 40 l 1
 360 410 l 1
 280 410 l 1
 180 410 l 1
 180 40 l 1
 240 30 l 1
 240 0 l 1
 40 0 l 1
 40 30 l 1
 100 40 l 1
 100 410 l 1
 20 410 l 1
 35 450 l 1
 100 450 l 1
 100 503 l 2
 100 569 133 606 176 633 c 0
 202 649 236 660 275 660 c 0
 311 660 359 649 384 626 c 1
 397 645 416 660 436 673 c 0
 462 689 497 700 530 700 c 0
 573 700 616 694 648 682 c 1
 664 688 676 693 690 700 c 1
 700 700 l 1
 700 629 l 1
 700 40 l 1
 760 30 l 1
 760 0 l 1
 560 0 l 1
 560 30 l 1
 620 40 l 1
 620 610 l 1
 606 631 595 660 530 660 c 0
 456 660 440 627 440 495 c 2
 440 450 l 1
 560 450 l 1
 560 410 l 1
360 548 m 1
 301 548 342 620 259 620 c 0
 180 620 180 540 180 455 c 2
 180 450 l 1
 295 450 l 1
 360 450 l 1
 360 548 l 1
EndSplineSet
Validated: 1
LCarets2: 2 270 530
Ligature2: "'liga' standard ligatures-subtable" f f l
EndChar

StartChar: T_h
Encoding: 65536 -1 139
Width: 1047
VWidth: 838
Flags: HMW
LayerCount: 2
Back
SplineSet
677 701 m 1
 687 701 l 1
 687 403 l 1
 729 440 786 458 855 458 c 0
 906 458 949 434 958 393 c 0
 962 374 962 354 962 331 c 2
 962 331 962 128 962 29 c 1
 1025 17 l 1
 1025 0 l 1
 821 0 l 1
 821 17 l 1
 883 29 l 1
 883 280 l 2
 883 354 878 401 807 401 c 0
 760 401 720 385 687 349 c 1
 687 29 l 1
 749 17 l 1
 749 0 l 1
 544 0 l 1
 544 17 l 1
 608 29 l 1
 608 466 l 2
 608 556 607 593 538 593 c 2
 364 593 l 1
 364 35 l 1
 456 20 l 1
 456 0 l 1
 184 0 l 1
 184 20 l 1
 276 35 l 1
 276 593 l 1
 99 593 l 1
 66 550 50 520 31 466 c 1
 10 466 l 1
 41 650 l 1
 545 650 l 1
 623 666 645 685 677 701 c 1
EndSplineSet
Fore
SplineSet
690 410 m 1
 732 447 769 460 838 460 c 0
 889 460 951 433 962 393 c 0
 967 374 967 354 967 331 c 2
 967 331 967 129 967 30 c 1
 1027 20 l 1
 1027 0 l 1
 827 0 l 1
 827 20 l 1
 887 30 l 1
 887 280 l 2
 887 354 882 410 811 410 c 0
 764 410 723 396 690 360 c 1
 690 30 l 1
 750 20 l 1
 750 0 l 1
 550 0 l 1
 550 20 l 1
 610 30 l 1
 610 470 l 2
 610 550 610 590 540 590 c 2
 365 590 l 1
 365 35 l 1
 455 20 l 1
 455 0 l 1
 185 0 l 1
 185 20 l 1
 275 35 l 1
 275 590 l 1
 100 590 l 1
 65 548 50 525 30 470 c 1
 10 470 l 1
 40 650 l 1
 550 650 l 1
 630 665 650 675 680 690 c 1
 690 690 l 1
 690 410 l 1
EndSplineSet
Validated: 1
LCarets2: 1 510
Ligature2: "'dlig' discretionary/historic ligatures-subtable" T h
EndChar

StartChar: minus
Encoding: 8722 8722 140
Width: 530
VWidth: 838
Flags: HMW
LayerCount: 2
Fore
SplineSet
65 230 m 5
 65 270 l 5
 465 270 l 5
 465 230 l 5
 65 230 l 5
EndSplineSet
Validated: 1
EndChar

StartChar: divide
Encoding: 247 247 141
Width: 530
VWidth: 838
Flags: HMW
LayerCount: 2
Fore
SplineSet
265 90 m 7
 235 90 210 116 210 145 c 7
 210 177 233 200 265 200 c 7
 298 200 320 178 320 145 c 7
 320 114 297 90 265 90 c 7
265 320 m 3
 235 320 210 346 210 375 c 3
 210 407 233 430 265 430 c 3
 298 430 320 408 320 375 c 3
 320 344 297 320 265 320 c 3
65 240 m 1
 65 280 l 1
 465 280 l 1
 465 240 l 1
 65 240 l 1
EndSplineSet
Validated: 1
EndChar

StartChar: dotlessi
Encoding: 305 305 142
Width: 245
VWidth: 838
Flags: HMW
AnchorPoint: "upper" 125 510 basechar 0
LayerCount: 2
Fore
SplineSet
155 460 m 1
 165 460 l 1
 165 30 l 1
 225 20 l 1
 225 0 l 1
 25 0 l 1
 25 20 l 1
 85 30 l 1
 85 380 l 1
 25 400 l 1
 25 420 l 1
 105 435 125 445 155 460 c 1
EndSplineSet
Validated: 1
EndChar

StartChar: tilde
Encoding: 732 732 145
Width: 490
VWidth: 838
Flags: HMW
AnchorPoint: "upper" 245 520 mark 0
LayerCount: 2
Fore
SplineSet
170 565 m 3
 135 565 120 550 110 520 c 1
 85 530 l 1
 85 580 125 615 185 615 c 3
 255 615 250 570 320 570 c 3
 355 570 370 585 380 615 c 1
 405 605 l 1
 405 555 365 520 305 520 c 3
 235 520 240 565 170 565 c 3
EndSplineSet
Validated: 1
EndChar

StartChar: circumflex
Encoding: 710 710 149
Width: 397
VWidth: 838
Flags: HMW
AnchorPoint: "upper" 199 520 mark 0
LayerCount: 2
Fore
SplineSet
70 520 m 1
 186 621 l 1
 213 621 l 1
 327 520 l 5
 267 520 l 5
 199 579 l 1
 130 520 l 1
 70 520 l 1
EndSplineSet
Validated: 1
EndChar

StartChar: germandbls
Encoding: 223 223 192
Width: 607
VWidth: 838
Flags: HMW
LayerCount: 2
Back
SplineSet
267 335 m 0
 267 423 333 460 426 460 c 3
 461 460 505 456 528 446 c 1
 528 331 l 1
 508 331 l 1
 489 403 467 410 419 410 c 3
 375 410 347 384 347 345 c 0
 347 271 455 261 493 235 c 0
 524 214 548 181 548 128 c 3
 548 37 484 -10 390 -10 c 3
 351 -10 302 -3 272 8 c 1
 267 143 l 1
 287 143 l 1
 305 55 342 35 397 35 c 3
 435 35 468 69 468 113 c 3
 468 187 370 199 323 231 c 0
 292 253 267 282 267 335 c 0
190 30 m 1
 250 20 l 1
 250 0 l 1
 50 0 l 1
 50 20 l 1
 110 30 l 1
 110 410 l 1
 30 410 l 1
 45 450 l 1
 110 450 l 1
 110 543 l 2
 110 609 143 646 186 673 c 0
 212 689 247 700 280 700 c 3
 364 700 451 676 451 629 c 0
 451 604 435 588 410 588 c 0
 350 588 383 660 280 660 c 3
 206 660 190 627 190 495 c 2
 190 30 l 1
EndSplineSet
Fore
SplineSet
373 581 m 3
 373 639 329 660 279 660 c 3
 190 660 190 580 190 495 c 2
 190 40 l 1
 250 30 l 1
 250 0 l 1
 50 0 l 1
 50 30 l 1
 110 40 l 1
 110 543 l 2
 110 609 143 646 186 673 c 0
 212 689 246 700 285 700 c 3
 386 700 453 672 453 612 c 3
 453 459 347 438 347 345 c 3
 347 271 455 261 493 235 c 0
 524 214 548 181 548 128 c 3
 548 37 484 -10 390 -10 c 3
 339 -10 270 11 270 58 c 3
 270 88 287 108 316 108 c 3
 372 108 336 40 397 40 c 3
 435 40 468 74 468 113 c 3
 468 187 370 199 323 231 c 0
 292 253 267 282 267 335 c 3
 267 446 373 470 373 581 c 3
EndSplineSet
Validated: 1
EndChar

StartChar: f_j
Encoding: 65537 -1 198
Width: 520
VWidth: 838
Flags: MW
LayerCount: 2
Back
SplineSet
430 490 m 1
 440 490 l 1
 440 40 l 1
 500 30 l 1
 500 0 l 1
 300 0 l 1
 300 30 l 1
 360 40 l 1
 360 390 l 1
 300 410 l 1
 180 410 l 1
 180 40 l 1
 240 30 l 1
 240 0 l 1
 40 0 l 1
 40 30 l 1
 100 40 l 1
 100 410 l 1
 20 410 l 1
 35 450 l 1
 100 450 l 1
 100 543 l 6
 100 609 133 646 176 673 c 4
 202 689 237 700 270 700 c 7
 354 700 441 676 441 629 c 4
 441 604 425 588 400 588 c 4
 340 588 373 660 270 660 c 7
 196 660 180 627 180 495 c 6
 180 450 l 1
 300 450 l 1
 380 465 400 475 430 490 c 1
EndSplineSet
Fore
SplineSet
440 0 m 2
 440 -40 421 -165 248 -165 c 3
 197 -165 155 -144 155 -97 c 3
 155 -67 172 -47 201 -47 c 3
 257 -47 228 -116 289 -116 c 3
 346 -116 360 -59 360 0 c 2
 360 0 360 260 360 390 c 1
 300 410 l 1
 180 410 l 1
 180 40 l 1
 240 30 l 1
 240 0 l 1
 40 0 l 1
 40 30 l 1
 100 40 l 1
 100 410 l 1
 20 410 l 1
 35 450 l 1
 100 450 l 1
 100 543 l 2
 100 609 133 646 176 673 c 0
 202 689 237 700 270 700 c 3
 354 700 440 676 440 629 c 3
 440 604 424 588 399 588 c 3
 339 588 373 660 270 660 c 3
 196 660 180 627 180 495 c 2
 180 450 l 1
 300 450 l 1
 380 465 400 475 430 490 c 1
 440 490 l 1
 440 0 l 2
EndSplineSet
Validated: 1
Ligature2: "'dlig' discretionary/historic ligatures-subtable" f j
LCarets2: 1 270
EndChar
